<svg width="600" height="506" viewBox="0 0 600 506" fill="none" xmlns="http://www.w3.org/2000/svg">
<g filter="url(#filter0_d_343_6)">
<ellipse cx="218" cy="203" rx="214" ry="203" fill="#7945E5"/>
</g>
<g clip-path="url(#clip0_343_6)">
<path d="M129.265 494.227L138.404 494.226L142.752 453.491L129.263 453.492L129.265 494.227Z" fill="#9E616A"/>
<path d="M126.933 490.779L129.506 490.779L139.549 486.059L144.932 490.778C147.974 490.778 150.892 492.175 153.043 494.66C155.194 497.146 156.403 500.517 156.403 504.032V504.463L126.934 504.464L126.933 490.779Z" fill="#2F2E41"/>
<path d="M171.724 494.227L180.864 494.226L185.212 453.491L171.723 453.492L171.724 494.227Z" fill="#9E616A"/>
<path d="M169.393 490.779L171.966 490.779L182.009 486.059L187.392 490.778C190.434 490.778 193.352 492.175 195.503 494.66C197.654 497.146 198.862 500.517 198.863 504.032V504.463L169.394 504.464L169.393 490.779Z" fill="#2F2E41"/>
<path d="M179.03 271.3L107.223 273.465L108.472 313.872C108.472 313.872 107.223 324.695 109.721 327.581C112.218 330.467 113.467 330.467 112.218 335.518C110.969 340.569 117.567 348.818 116.766 349.744C115.965 350.67 114.091 355.721 114.091 355.721L120.335 396.849C120.335 396.849 124.706 468.282 125.955 469.725C127.204 471.168 128.453 469.725 127.204 473.333C125.955 476.941 124.706 475.498 125.955 476.941C127.061 478.319 128.103 479.764 129.077 481.27H144.174C144.174 481.27 145.312 474.055 145.312 473.333C145.312 472.611 146.561 468.282 146.561 467.561C146.561 466.839 145.457 465.564 145.457 465.564C145.075 464.097 144.818 462.591 144.687 461.067C144.687 459.624 140.941 404.065 140.941 404.065L148.434 331.91L166.542 402.622C166.542 402.622 166.542 464.675 167.79 466.118C169.039 467.561 169.039 466.839 168.415 469.725C167.79 472.611 165.293 471.89 167.166 474.055C169.039 476.219 169.664 472.611 169.039 476.219L168.415 479.827L187.147 480.137C187.147 480.137 189.645 474.055 188.396 471.89C187.147 469.725 187.222 470.316 188.746 466.774C190.269 463.231 190.894 462.51 190.269 461.788C189.645 461.067 189.645 457.229 189.645 457.229L186.523 388.191C186.523 388.191 185.898 315.315 185.898 313.15C185.851 312.036 186.029 310.925 186.417 309.904V306.966L184.025 296.555L179.03 271.3Z" fill="#2F2E41"/>
<path d="M260.293 113.93C259.948 115.038 259.397 116.045 258.678 116.881C257.96 117.717 257.092 118.36 256.135 118.766C255.178 119.172 254.156 119.33 253.14 119.23C252.124 119.13 251.14 118.774 250.256 118.187L219.086 148.363L217.392 133.613L247.879 106.644C248.831 104.994 250.274 103.805 251.934 103.302C253.594 102.799 255.356 103.017 256.886 103.915C258.417 104.813 259.609 106.329 260.236 108.174C260.864 110.02 260.884 112.068 260.293 113.93Z" fill="#9E616A"/>
<path d="M122.851 126.383C133.542 126.383 142.208 116.369 142.208 104.016C142.208 91.6622 133.542 81.6477 122.851 81.6477C112.161 81.6477 103.495 91.6622 103.495 104.016C103.495 116.369 112.161 126.383 122.851 126.383Z" fill="#9E616A"/>
<path d="M138.544 81.7548C136.742 76.7914 129.019 73.8445 116.798 74.2884C104.578 74.7322 102.437 91.5725 102.437 91.5725C95.7064 98.8222 106.574 121.457 108.459 118.337C110.344 115.216 113.51 118.166 113.51 118.166L110.493 98.5582C113.679 99.9744 117.105 100.925 120.101 99.2754L115.137 96.2076C119.251 96.7993 123.366 97.391 127.481 97.9827L122.39 93.4571C122.513 93.41 122.637 93.3611 122.76 93.3131C124.802 94.3302 126.988 94.9039 129.21 95.0051C131.805 94.9828 134.563 93.5774 135.651 90.8542C135.94 90.1064 136.096 89.2992 136.111 88.4804C139.69 89.8229 141.569 94.6672 141.569 94.6672C140.889 90.2691 139.877 85.9483 138.544 81.7548Z" fill="#2F2E41"/>
<path d="M138.345 127.384C134.023 127.384 131.239 128.073 124.513 129.382C112.098 131.8 119.533 145.431 119.533 145.431C119.533 145.431 120.095 145.101 118.573 145.431C117.052 145.761 111.865 150.945 111.865 150.945L102.588 160.466C88.6088 173.144 91.7384 192.925 91.7384 192.925L112.124 216.631L103.193 264.195C103.193 264.195 106.989 271.258 105.026 274.425C103.064 277.592 122.317 276.683 122.317 276.683C135.605 283.526 182.419 277.742 182.419 277.742C181.771 275.784 175.503 260.609 175.503 260.609C178.226 255.174 175.633 247.321 175.633 247.321C175.633 247.321 172.927 210.178 171.198 205.043C169.468 199.908 175.624 172.085 179.67 172.385C183.716 172.684 209.851 157.279 209.851 157.279C209.851 157.279 209.194 156.07 217.822 151.994C222.778 149.744 227.321 146.433 231.213 142.234L234.758 134.052C233.055 134.811 227.306 122.283 227.306 122.283L224.799 123.388L223.346 122.903C223.346 122.903 212.012 126.629 209.695 129.347C207.378 132.064 206.6 131.305 204.508 131.914C202.416 132.523 202.156 134.222 201.499 134.032C200.842 133.842 199.675 136.14 198.759 135.84C197.842 135.541 195.88 136.749 194.574 137.049C193.269 137.349 183.993 141.884 183.993 141.884C178.252 138.528 162.69 139.886 162.69 139.886C162.69 139.886 157.598 136.42 156.155 139.886C155.766 140.871 155.142 141.707 154.357 142.297C153.571 142.886 152.656 143.204 151.72 143.213L145.512 140.146C145.152 141.668 138.381 125.807 138.345 127.384Z" fill="#6C63FF"/>
<path d="M108.71 313.536C108.032 312.656 107.529 311.615 107.237 310.487C106.945 309.358 106.87 308.169 107.018 307.004C107.167 305.839 107.534 304.725 108.096 303.742C108.657 302.758 109.397 301.929 110.266 301.312L101.472 261.363L113.495 266.687L120.177 304.411C120.977 306.166 121.192 308.199 120.782 310.124C120.372 312.05 119.364 313.735 117.951 314.859C116.537 315.984 114.816 316.47 113.113 316.226C111.409 315.983 109.843 315.025 108.71 313.536Z" fill="#9E616A"/>
<path d="M92.5251 185.327L91.4391 201.28C91.4391 201.28 90.0891 218.807 90.4426 222.047C90.796 225.288 91.4543 245.08 91.4543 245.08L102.9 271.244L115.868 267.247L115.091 254.974L115.868 266.248L117.597 256.258L113.274 239.275L115.868 233.281L114.56 213.159L92.5251 185.327Z" fill="#6C63FF"/>
<path d="M399.556 148.043L403.837 149.103C403.866 147.034 404.089 144.974 404.503 142.961C404.892 145.426 405.713 147.775 406.914 149.862L431.468 155.922L455.043 127.173C455.079 112.798 448.171 101.874 435.786 101.874C435.039 101.874 434.266 101.916 433.483 101.999C426.792 100.705 419.926 102.462 414.333 106.899C408.74 111.337 404.855 118.109 403.496 125.79C394.717 135.779 397.901 141.651 399.556 148.043Z" fill="#2F2E41"/>
<path d="M387.484 484.251H378.577L374.34 444.551H387.486L387.484 484.251Z" fill="#FFB6B6"/>
<path d="M391.468 503.794H385.148L384.02 496.899L381.131 503.794H364.368C363.565 503.794 362.782 503.497 362.135 502.947C361.488 502.397 361.01 501.622 360.771 500.736C360.531 499.849 360.544 498.898 360.806 498.02C361.068 497.142 361.566 496.384 362.227 495.857L375.613 485.174V478.203L389.693 479.174L391.468 503.794Z" fill="#2F2E41"/>
<path d="M491.832 473.048L484.085 478.127L463.446 446.014L474.879 438.518L491.832 473.048Z" fill="#FFB6B6"/>
<path d="M503.644 487.773L498.147 491.377L494.221 486.024L494.653 493.668L480.073 503.228C479.374 503.686 478.567 503.874 477.769 503.764C476.971 503.655 476.225 503.254 475.638 502.619C475.052 501.984 474.656 501.15 474.509 500.237C474.362 499.324 474.471 498.381 474.821 497.545L481.902 480.62L478.925 474.557L491.585 467.372L503.644 487.773Z" fill="#2F2E41"/>
<path d="M354.561 154.998C355.703 155.189 356.794 155.667 357.758 156.398C358.722 157.128 359.536 158.095 360.143 159.228C360.749 160.362 361.132 161.636 361.267 162.959C361.401 164.283 361.282 165.624 360.919 166.889L374.549 180.521L369.4 192.113L350.386 172.549C348.588 171.704 347.12 170.125 346.262 168.113C345.403 166.101 345.213 163.794 345.728 161.631C346.243 159.468 347.426 157.597 349.054 156.375C350.682 155.153 352.642 154.663 354.561 154.998Z" fill="#FFB6B6"/>
<path d="M366.343 197.426L357.227 180.667L367.363 168.693L374.561 178.815L383.479 183.412L395.717 192.029C398.15 188.719 416.902 163.826 425.269 170.993C426.274 171.785 427.118 172.818 427.744 174.022C428.37 175.226 428.764 176.573 428.897 177.969C429.488 184.633 424.319 191.412 424.123 191.663L413.07 208.893C412.727 209.975 409.069 221.132 403.362 224.133C402.552 224.582 401.67 224.831 400.771 224.865C399.873 224.899 398.979 224.717 398.145 224.33C383.022 217.518 372.833 209.833 368.286 201.876C367.482 200.491 366.829 198.997 366.343 197.426Z" fill="#2F2E41"/>
<path d="M400.074 232.404C400.074 232.404 373.885 280.609 378.629 286.092C383.374 291.575 390.757 293.015 390.757 293.015L407.097 268.547L400.074 232.404Z" fill="#2F2E41"/>
<path d="M423.229 166.568L410.886 176.217C405.149 180.701 400.834 187.225 398.596 194.8C396.357 202.374 396.317 210.586 398.482 218.189L401.957 230.394L423.229 166.568Z" fill="#2F2E41"/>
<path d="M445.055 298.154L446.705 304.796L452.336 384.889L480.468 445.473L467.041 456.556L428.679 398.927L413.506 341.705L389.677 468.377L371.775 466.9L384.208 291.27L407.802 241.835L445.055 298.154Z" fill="#2F2E41"/>
<path d="M425.328 168.994L408.149 185.218C404.379 188.779 401.664 193.61 400.383 199.038C399.801 201.503 399.525 204.051 399.562 206.605L400.074 241.835L384.323 290.478C384.323 290.478 427.025 309.12 432.719 292.672C438.412 276.223 425.328 168.994 425.328 168.994Z" fill="#6C63FF"/>
<path d="M401.404 276.223L398.557 263.065L399.252 230.324C399.308 228.421 408.083 198.812 419.142 167.361L428.657 156.367L433.786 152.51L445.076 164.553C445.076 164.553 443.641 197.518 444.106 231.265C444.234 240.601 442.814 251.505 442.208 259.775L447.395 286.411V301.238L447.058 301.316C446.721 301.395 441.522 301.21 420.19 301.21C402.515 301.21 414.282 286.728 401.404 276.223Z" fill="#2F2E41"/>
<path opacity="0.2" d="M440.29 193.952L442.885 212.657L425.328 221.025L440.29 193.952Z" fill="black"/>
<path d="M422.605 149.002C432.098 149.002 439.794 140.109 439.794 129.139C439.794 118.169 432.098 109.276 422.605 109.276C413.112 109.276 405.417 118.169 405.417 129.139C405.417 140.109 413.112 149.002 422.605 149.002Z" fill="#FFB6B6"/>
<path opacity="0.2" d="M451.406 229.919C446.832 236.04 440.627 240.231 433.766 241.834C426.906 243.436 419.78 242.359 413.507 238.772L409.766 236.632L451.406 229.919Z" fill="black"/>
<path d="M391.594 225.347C392.361 224.352 393.307 223.563 394.366 223.036C395.426 222.508 396.572 222.256 397.725 222.296C398.877 222.337 400.008 222.668 401.038 223.268C402.068 223.868 402.971 224.722 403.684 225.769L421.039 220.139L426.572 231.492L401.967 239.045C400.366 240.313 398.417 240.858 396.491 240.577C394.564 240.296 392.794 239.208 391.516 237.52C390.237 235.832 389.539 233.66 389.553 231.416C389.568 229.173 390.294 227.013 391.594 225.347Z" fill="#FFB6B6"/>
<path d="M428.724 237.368L411.599 236.922L408.538 220.55L419.814 219.186L428.048 213.121L441.014 206.069C439.965 201.898 432.323 170.098 442.11 165.98C443.235 165.448 444.446 165.203 445.661 165.263C446.876 165.323 448.065 165.686 449.147 166.327C454.285 169.429 456.331 178.149 456.404 178.476L462.755 198.629C463.347 199.557 469.389 209.232 468.411 216.389C468.288 217.417 467.982 218.405 467.511 219.29C467.041 220.175 466.417 220.937 465.678 221.528C452.425 232.356 441.26 237.947 433.009 237.946C431.566 237.958 430.127 237.764 428.724 237.368Z" fill="#2F2E41"/>
<path d="M401.994 116.072C403.37 118.14 408.11 119.97 413.74 121.446C413.731 121.311 413.731 121.176 413.731 121.04C413.759 118.971 413.983 116.911 414.397 114.898C414.786 117.364 415.607 119.712 416.808 121.799C416.897 121.955 416.987 122.111 417.086 122.267C421.916 123.369 427.025 124.221 431.028 124.792C428.275 136.246 417.725 145.642 418.867 152.606L449.781 159.902C449.591 157.009 449.791 154.098 450.375 151.276C450.966 155.001 452.529 158.428 454.854 161.098L457.48 161.721L458.263 157.262C465.045 138.439 455.592 119.17 440.103 109.202C437.342 104.418 433.054 101.092 428.176 99.9515L424.318 99.0369C421.884 98.4615 419.376 98.4457 416.937 98.9904C414.498 99.5351 412.175 100.63 410.102 102.212C408.029 103.793 406.246 105.832 404.855 108.21C403.464 110.588 402.491 113.26 401.994 116.072Z" fill="#2F2E41"/>
<path d="M22.7751 479.621L22.3587 468.8C18.0171 466.118 13.1746 464.702 8.25171 464.673C15.027 471.074 14.1803 483.413 18.7738 492.021C20.2243 494.693 22.1765 496.954 24.4858 498.636C26.7951 500.317 29.4023 501.377 32.1142 501.736L37.7841 505.747C38.5621 500.736 38.3905 495.588 37.2813 490.66C36.1721 485.732 34.1515 481.141 31.3588 477.202C29.7731 475.011 27.955 473.058 25.9472 471.392C24.5892 475.529 22.7751 479.621 22.7751 479.621Z" fill="#F2F2F2"/>
<path d="M9.02932 506H598.971C599.243 505.999 599.504 505.873 599.697 505.65C599.889 505.427 599.997 505.125 599.997 504.81C599.997 504.495 599.889 504.193 599.697 503.97C599.504 503.748 599.243 503.622 598.971 503.621H9.02932C8.75683 503.622 8.49579 503.748 8.30338 503.97C8.11098 504.193 8.00293 504.495 8.00293 504.81C8.00293 505.125 8.11098 505.427 8.30338 505.65C8.49579 505.873 8.75683 505.999 9.02932 506Z" fill="#CACACA"/>
<path d="M329.071 67.9876C331.21 78.8467 332.226 91.1578 326.521 100.876C324.096 105.044 320.537 108.16 316.408 109.729C312.228 111.161 307.821 111.474 303.521 110.643C293.79 109.085 285.142 103.228 275.572 100.954C271.349 99.951 266.867 99.6193 262.801 101.551C259.755 102.998 256.547 105.907 256.532 110.057C256.517 114.319 259.72 117.147 262.906 118.457C267.156 120.206 271.574 119.529 275.983 119.309C280.731 119.071 285.573 119.568 289.518 122.928C292.91 125.988 295.512 130.064 297.04 134.714C299.023 140.274 299.828 146.253 301.096 152.055C302.229 157.271 303.832 162.335 305.878 167.165C309.894 176.633 315.524 185.065 322.429 191.956C325.835 195.343 329.973 198.793 334.624 199.104C338.211 199.343 342.572 197.601 343.955 193.402C344.468 191.589 344.418 189.626 343.813 187.851C343.207 186.077 342.084 184.602 340.638 183.683C337.563 181.89 334.215 184.447 333.222 187.957C332.962 188.766 332.871 189.635 332.957 190.493C333.042 191.35 333.302 192.172 333.716 192.892C334.648 194.498 332.402 196 331.476 194.404C329.326 190.7 330.45 185.717 333.083 182.75C334.368 181.236 336.085 180.315 337.914 180.157C339.743 180 341.56 180.617 343.024 181.894C344.546 183.232 345.696 185.055 346.334 187.139C346.972 189.222 347.069 191.475 346.615 193.622C345.509 198.234 341.587 201.167 337.671 201.894C332.834 202.792 328.18 200.595 324.276 197.422C320.359 194.155 316.798 190.353 313.669 186.1C307.308 177.647 302.527 167.767 299.623 157.079C296.769 146.509 296.561 132.544 288.078 125.405C283.714 121.731 278.365 122.139 273.248 122.476C268.73 122.774 264.323 122.72 260.178 120.356C256.756 118.405 253.995 114.803 253.938 110.214C253.88 105.581 256.727 101.856 260.08 99.7454C268.94 94.1697 279.579 98.6665 288.283 102.392C297.036 106.138 307.03 110.534 316.332 106.592C320.625 104.664 324.081 100.848 325.943 95.9798C328.196 90.4598 328.516 84.1967 327.996 78.2061C327.689 75.0345 327.213 71.8879 326.57 68.7844C326.2 66.9065 328.7 66.1047 329.071 67.9876Z" fill="#3F3D56"/>
<path d="M313.173 37.5252C315.738 47.4205 319.604 56.8011 324.637 65.3381C325.882 67.436 327.19 69.4807 328.562 71.4721C329.628 69.233 330.919 67.1473 332.409 65.2582C337.639 58.6147 344.651 54.2689 351.455 49.9131C358.259 45.5574 365.166 40.8819 369.973 33.8188C372.13 30.6394 373.674 26.9642 374.503 23.0394C375.592 17.7145 375.178 12.16 372.489 7.7143C368.581 1.25061 360.792 -1.02717 354.169 0.841004C347.538 2.70918 341.988 8.03398 337.683 14.148C339.092 6.63534 332.236 -0.617576 325.605 0.0417808C318.974 0.711128 313.657 7.40459 311.894 14.8174C310.121 22.2201 311.271 30.1524 313.173 37.5252Z" fill="#6C63FF"/>
<g opacity="0.2">
<path d="M324.637 65.338C325.882 67.436 327.19 69.4807 328.562 71.4721C329.628 69.233 330.92 67.1472 332.409 65.2581C337.64 58.6146 344.651 54.2688 351.455 49.9131C358.259 45.5573 365.166 40.8819 369.973 33.8188C372.13 30.6393 373.675 26.9642 374.503 23.0393C359.208 25.4896 345.154 34.1053 334.821 47.3656C330.684 52.7489 327.253 58.8041 324.637 65.338Z" fill="black"/>
</g>
</g>
<defs>
<filter id="filter0_d_343_6" x="0" y="0" width="436" height="414" filterUnits="userSpaceOnUse" color-interpolation-filters="sRGB">
<feFlood flood-opacity="0" result="BackgroundImageFix"/>
<feColorMatrix in="SourceAlpha" type="matrix" values="0 0 0 0 0 0 0 0 0 0 0 0 0 0 0 0 0 0 127 0" result="hardAlpha"/>
<feOffset dy="4"/>
<feGaussianBlur stdDeviation="2"/>
<feComposite in2="hardAlpha" operator="out"/>
<feColorMatrix type="matrix" values="0 0 0 0 0 0 0 0 0 0 0 0 0 0 0 0 0 0 0.25 0"/>
<feBlend mode="normal" in2="BackgroundImageFix" result="effect1_dropShadow_343_6"/>
<feBlend mode="normal" in="SourceGraphic" in2="effect1_dropShadow_343_6" result="shape"/>
</filter>
<clipPath id="clip0_343_6">
<rect width="592" height="506" fill="white" transform="translate(8)"/>
</clipPath>
</defs>
</svg>
