<svg width="579" height="515" viewBox="0 0 579 515" fill="none" xmlns="http://www.w3.org/2000/svg">
<g filter="url(#filter0_d_343_5)">
<ellipse cx="361" cy="203" rx="214" ry="203" fill="#DD2287"/>
</g>
<g clip-path="url(#clip0_343_5)">
<path d="M352.399 406.356V510.976H110.314C82.7318 510.976 60.2905 487.509 60.2905 458.666C60.2905 429.823 82.7318 406.356 110.314 406.356H352.399Z" fill="#F2F2F2"/>
<path d="M358.346 510.171C358.345 511.238 357.954 512.262 357.257 513.016C356.56 513.771 355.615 514.195 354.629 514.195H106.002C92.4988 514.195 79.5484 508.387 70.0001 498.049C60.4517 487.711 55.0875 473.689 55.0875 459.069C55.0875 444.448 60.4517 430.426 70.0001 420.088C79.5484 409.75 92.4988 403.942 106.002 403.942H354.629C355.615 403.942 356.56 404.366 357.257 405.121C357.954 405.875 358.346 406.899 358.346 407.966C358.346 409.033 357.954 410.057 357.257 410.811C356.56 411.566 355.615 411.99 354.629 411.99H106.002C94.4701 411.99 83.4103 416.95 75.2559 425.779C67.1014 434.608 62.5203 446.583 62.5203 459.069C62.5203 471.555 67.1014 483.529 75.2559 492.358C83.4103 501.187 94.4701 506.148 106.002 506.148H354.629C355.615 506.148 356.56 506.572 357.257 507.327C357.954 508.081 358.345 509.104 358.346 510.171Z" fill="#6C63FF"/>
<path d="M352.399 430.499H92.2516C92.0545 430.499 91.8654 430.415 91.726 430.264C91.5866 430.113 91.5083 429.908 91.5083 429.695C91.5083 429.481 91.5866 429.277 91.726 429.126C91.8654 428.975 92.0545 428.89 92.2516 428.89H352.399C352.597 428.89 352.786 428.975 352.925 429.126C353.064 429.277 353.143 429.481 353.143 429.695C353.143 429.908 353.064 430.113 352.925 430.264C352.786 430.415 352.597 430.499 352.399 430.499Z" fill="#CCCCCC"/>
<path d="M352.399 449.814H92.2516C92.0545 449.814 91.8654 449.729 91.726 449.578C91.5866 449.427 91.5083 449.222 91.5083 449.009C91.5083 448.796 91.5866 448.591 91.726 448.44C91.8654 448.289 92.0545 448.204 92.2516 448.204H352.399C352.597 448.204 352.786 448.289 352.925 448.44C353.064 448.591 353.143 448.796 353.143 449.009C353.143 449.222 353.064 449.427 352.925 449.578C352.786 449.729 352.597 449.814 352.399 449.814Z" fill="#CCCCCC"/>
<path d="M352.399 469.128H92.2516C92.0545 469.128 91.8654 469.043 91.726 468.892C91.5866 468.742 91.5083 468.537 91.5083 468.323C91.5083 468.11 91.5866 467.905 91.726 467.754C91.8654 467.603 92.0545 467.519 92.2516 467.519H352.399C352.597 467.519 352.786 467.603 352.925 467.754C353.064 467.905 353.143 468.11 353.143 468.323C353.143 468.537 353.064 468.742 352.925 468.892C352.786 469.043 352.597 469.128 352.399 469.128Z" fill="#CCCCCC"/>
<path d="M352.399 488.443H92.2516C92.0545 488.443 91.8654 488.358 91.726 488.207C91.5866 488.056 91.5083 487.851 91.5083 487.638C91.5083 487.424 91.5866 487.22 91.726 487.069C91.8654 486.918 92.0545 486.833 92.2516 486.833H352.399C352.597 486.833 352.786 486.918 352.925 487.069C353.064 487.22 353.143 487.424 353.143 487.638C353.143 487.851 353.064 488.056 352.925 488.207C352.786 488.358 352.597 488.443 352.399 488.443Z" fill="#CCCCCC"/>
<path d="M539.496 426.05L478.87 507.515L290.363 343.061C268.885 324.323 265.01 290.805 281.724 268.346C298.438 245.886 329.511 242.858 350.989 261.595L539.496 426.05Z" fill="#F2F2F2"/>
<path d="M483.967 510.928C483.348 511.759 482.45 512.289 481.47 512.403C480.491 512.517 479.509 512.206 478.741 511.537L285.14 342.638C274.626 333.465 267.907 320.145 266.463 305.608C265.018 291.072 268.967 276.509 277.439 265.124C285.911 253.74 298.214 246.465 311.64 244.902C325.066 243.338 338.515 247.613 349.03 256.786L542.631 425.685C543.011 426.016 543.328 426.425 543.562 426.889C543.796 427.353 543.944 427.862 543.996 428.388C544.048 428.913 544.005 429.445 543.867 429.952C543.73 430.459 543.501 430.932 543.195 431.344C542.889 431.756 542.51 432.098 542.082 432.351C541.653 432.604 541.183 432.764 540.697 432.82C540.212 432.877 539.721 432.829 539.253 432.68C538.784 432.531 538.348 432.283 537.968 431.951L344.367 263.053C339.921 259.171 334.812 256.275 329.332 254.532C323.852 252.788 318.109 252.23 312.43 252.891C306.751 253.551 301.248 255.416 296.235 258.379C291.222 261.343 286.797 265.347 283.213 270.162C279.63 274.978 276.958 280.51 275.349 286.444C273.741 292.378 273.228 298.597 273.84 304.745C274.452 310.894 276.177 316.851 278.916 322.278C281.655 327.704 285.355 332.493 289.804 336.371L483.405 505.27C484.172 505.94 484.662 506.912 484.767 507.973C484.873 509.034 484.585 510.097 483.967 510.928Z" fill="#CCCCCC"/>
<path d="M525.505 444.849L322.933 268.125C322.857 268.058 322.794 267.976 322.747 267.884C322.701 267.791 322.671 267.689 322.661 267.584C322.65 267.479 322.659 267.373 322.686 267.271C322.714 267.17 322.76 267.075 322.821 266.993C322.882 266.911 322.958 266.842 323.043 266.792C323.129 266.741 323.223 266.709 323.32 266.698C323.417 266.686 323.515 266.696 323.609 266.726C323.703 266.756 323.79 266.805 323.866 266.871L526.438 443.596C526.514 443.662 526.577 443.744 526.624 443.837C526.671 443.93 526.701 444.032 526.711 444.137C526.722 444.242 526.713 444.348 526.686 444.45C526.658 444.551 526.612 444.646 526.551 444.728C526.49 444.811 526.414 444.879 526.328 444.93C526.243 444.981 526.149 445.012 526.051 445.024C525.954 445.035 525.856 445.025 525.762 444.995C525.669 444.966 525.581 444.916 525.505 444.849Z" fill="#CCCCCC"/>
<path d="M514.313 459.889L311.741 283.164C311.588 283.03 311.49 282.836 311.469 282.624C311.448 282.412 311.506 282.199 311.629 282.033C311.753 281.867 311.932 281.761 312.128 281.738C312.324 281.715 312.52 281.777 312.674 281.911L515.246 458.636C515.322 458.702 515.385 458.784 515.432 458.877C515.479 458.97 515.508 459.071 515.519 459.177C515.529 459.282 515.521 459.388 515.493 459.49C515.466 459.591 515.42 459.686 515.359 459.768C515.297 459.851 515.222 459.919 515.136 459.97C515.05 460.02 514.956 460.052 514.859 460.063C514.762 460.075 514.664 460.065 514.57 460.035C514.476 460.005 514.389 459.956 514.313 459.889Z" fill="#CCCCCC"/>
<path d="M503.121 474.929L300.549 298.204C300.395 298.07 300.297 297.876 300.276 297.664C300.255 297.451 300.312 297.239 300.436 297.073C300.56 296.906 300.739 296.8 300.935 296.777C301.131 296.754 301.328 296.817 301.481 296.951L504.053 473.676C504.129 473.742 504.192 473.824 504.239 473.917C504.286 474.009 504.315 474.111 504.326 474.216C504.336 474.321 504.328 474.428 504.3 474.529C504.273 474.63 504.227 474.725 504.166 474.807C504.104 474.89 504.029 474.958 503.943 475.009C503.857 475.059 503.763 475.091 503.666 475.102C503.569 475.114 503.471 475.104 503.378 475.075C503.284 475.045 503.197 474.995 503.121 474.929Z" fill="#CCCCCC"/>
<path d="M491.928 489.969L289.356 313.244C289.28 313.178 289.217 313.096 289.17 313.003C289.123 312.91 289.094 312.808 289.083 312.703C289.073 312.598 289.082 312.492 289.109 312.391C289.137 312.289 289.183 312.195 289.244 312.112C289.305 312.03 289.381 311.962 289.466 311.911C289.552 311.86 289.646 311.828 289.743 311.817C289.84 311.806 289.938 311.815 290.032 311.845C290.126 311.875 290.213 311.924 290.289 311.991L492.861 488.715C492.937 488.782 493 488.864 493.047 488.956C493.094 489.049 493.124 489.151 493.134 489.256C493.145 489.361 493.136 489.468 493.109 489.569C493.081 489.671 493.035 489.765 492.974 489.848C492.913 489.93 492.837 489.999 492.751 490.049C492.666 490.1 492.571 490.132 492.474 490.143C492.377 490.154 492.279 490.145 492.185 490.115C492.092 490.085 492.004 490.035 491.928 489.969Z" fill="#CCCCCC"/>
<path d="M552.257 515H0.74328C0.54615 515 0.357093 514.915 0.217701 514.764C0.078309 514.613 0 514.409 0 514.195C0 513.982 0.078309 513.777 0.217701 513.626C0.357093 513.475 0.54615 513.39 0.74328 513.39H552.257C552.454 513.39 552.643 513.475 552.782 513.626C552.922 513.777 553 513.982 553 514.195C553 514.409 552.922 514.613 552.782 514.764C552.643 514.915 552.454 515 552.257 515Z" fill="#CCCCCC"/>
<path d="M251.289 395.36L242.792 395.359L238.75 359.872L251.292 359.874L251.289 395.36Z" fill="#FFB8B8"/>
<path d="M236.721 392.73H253.109V403.902H226.403C226.403 402.435 226.67 400.982 227.189 399.627C227.707 398.272 228.467 397.04 229.425 396.003C230.384 394.965 231.521 394.142 232.773 393.581C234.025 393.019 235.366 392.73 236.721 392.73Z" fill="#2F2E41"/>
<path d="M164.477 395.36L155.98 395.359L151.939 359.872L164.48 359.874L164.477 395.36Z" fill="#FFB8B8"/>
<path d="M149.91 392.73H166.298V403.902H139.592C139.592 402.435 139.859 400.982 140.378 399.627C140.896 398.272 141.656 397.04 142.614 396.003C143.573 394.965 144.71 394.142 145.962 393.581C147.214 393.019 148.555 392.73 149.91 392.73Z" fill="#2F2E41"/>
<path d="M192.859 132.129V128.105C192.859 121.222 195.385 114.621 199.88 109.753C204.376 104.886 210.473 102.152 216.83 102.152C223.188 102.152 229.285 104.886 233.78 109.753C238.275 114.621 240.801 121.222 240.801 128.105V132.129C240.801 137.092 238.98 141.851 235.739 145.36C232.499 148.869 228.103 150.84 223.52 150.84H210.141C207.871 150.84 205.624 150.356 203.527 149.416C201.431 148.476 199.526 147.097 197.921 145.36C196.316 143.623 195.043 141.56 194.175 139.29C193.306 137.02 192.859 134.587 192.859 132.129Z" fill="#2F2E41"/>
<path d="M216.83 152.225C226.913 152.225 235.086 143.375 235.086 132.459C235.086 121.542 226.913 112.693 216.83 112.693C206.748 112.693 198.574 121.542 198.574 132.459C198.574 143.375 206.748 152.225 216.83 152.225Z" fill="#FFB8B8"/>
<path d="M117.531 200.392C118.272 199.634 119.157 199.062 120.124 198.715C121.091 198.368 122.117 198.255 123.129 198.384C124.141 198.512 125.115 198.88 125.981 199.46C126.848 200.04 127.586 200.819 128.145 201.742L143.795 198.537L147.913 208.358L125.754 212.549C124.26 213.462 122.509 213.75 120.832 213.359C119.155 212.967 117.669 211.923 116.655 210.425C115.642 208.926 115.171 207.077 115.332 205.228C115.494 203.379 116.276 201.658 117.531 200.392Z" fill="#FFB8B8"/>
<path d="M202.802 165.008L177.14 183.312L133.838 198.284C133.264 198.483 132.771 198.892 132.445 199.441C132.118 199.989 131.976 200.644 132.045 201.292L132.99 210.102C133.032 210.492 133.148 210.868 133.332 211.206C133.516 211.544 133.763 211.837 134.058 212.066C134.353 212.294 134.688 212.454 135.043 212.534C135.398 212.614 135.764 212.613 136.119 212.531L176.873 203.073C178.845 202.618 180.71 201.729 182.352 200.461L211.182 178.252C212.227 177.442 213.061 176.354 213.603 175.092C214.144 173.83 214.375 172.438 214.273 171.051C214.167 169.662 213.729 168.327 213.003 167.177C212.276 166.027 211.285 165.101 210.127 164.492C208.97 163.882 207.686 163.609 206.402 163.7C205.117 163.79 203.877 164.241 202.802 165.008Z" fill="#CCCCCC"/>
<path d="M242.943 385.29C242.291 385.29 241.653 385.084 241.107 384.698C240.561 384.312 240.13 383.762 239.868 383.116L200.913 278.898C200.822 278.672 200.669 278.481 200.475 278.352C200.281 278.223 200.055 278.161 199.828 278.175C199.601 278.189 199.383 278.277 199.203 278.429C199.024 278.581 198.892 278.789 198.825 279.025L167.044 380.485C166.909 380.957 166.688 381.395 166.391 381.771C166.095 382.146 165.731 382.453 165.322 382.671C164.912 382.889 164.466 383.014 164.01 383.038C163.555 383.062 163.099 382.985 162.672 382.812L152.015 378.485C151.436 378.252 150.929 377.85 150.548 377.324C150.168 376.797 149.93 376.167 149.861 375.503C145.067 330.281 186.877 216.135 187.3 214.988L187.417 214.67L225.53 223.798L225.609 223.892C240.815 241.852 253.314 355.135 255.665 377.662C255.753 378.475 255.582 379.297 255.18 379.991C254.779 380.686 254.171 381.211 253.457 381.482L244.049 385.084C243.694 385.22 243.32 385.29 242.943 385.29Z" fill="#2F2E41"/>
<path d="M210.105 227.472C200.871 227.472 190.575 225.479 187.407 217.251L187.334 217.062L187.432 216.887C189.933 212.443 193.239 204.863 191.462 203.44C187.962 200.638 186.264 196.029 186.414 189.739C186.742 176.085 195.334 163.963 207.796 159.574C211.274 158.369 214.814 157.382 218.397 156.619C221.009 156.048 223.706 156.111 226.294 156.803C228.881 157.495 231.295 158.798 233.361 160.62C235.454 162.454 237.146 164.767 238.314 167.392C239.483 170.018 240.101 172.892 240.122 175.806C240.253 190.398 238.178 210.72 227.552 224.672C227.054 225.319 226.361 225.756 225.595 225.904C220.482 226.906 215.3 227.43 210.105 227.472Z" fill="#CCCCCC"/>
<path d="M206.67 226.926C207.172 224.974 208.366 223.316 209.991 222.312C211.617 221.307 213.542 221.038 215.35 221.563C215.719 221.675 216.079 221.819 216.426 221.994L228.309 210.286L236.573 216.314L219.58 232.595C218.813 234.093 217.605 235.27 216.148 235.939C214.692 236.608 213.071 236.73 211.543 236.286C210.653 236.022 209.82 235.57 209.092 234.956C208.364 234.341 207.756 233.577 207.303 232.706C206.85 231.836 206.561 230.877 206.452 229.885C206.343 228.893 206.417 227.887 206.67 226.926Z" fill="#FFB8B8"/>
<path d="M226.427 227.075C225.656 227.075 224.908 226.786 224.312 226.258L219.626 222.112C219.235 221.766 218.922 221.329 218.709 220.834C218.496 220.339 218.39 219.798 218.398 219.251C218.406 218.705 218.527 218.168 218.754 217.68C218.981 217.192 219.306 216.766 219.707 216.434L239.36 200.113C239.593 199.919 239.746 199.633 239.785 199.317C239.825 199.002 239.748 198.682 239.571 198.428L227.44 181.064C226.031 179.053 225.324 176.567 225.445 174.047C225.566 171.526 226.506 169.133 228.1 167.291C229.779 165.328 232.078 164.12 234.54 163.907C237.003 163.693 239.45 164.49 241.396 166.139L241.472 166.227L254.139 185.865C255.509 187.028 256.612 188.518 257.362 190.219C258.112 191.919 258.489 193.785 258.463 195.669C258.437 197.553 258.009 199.406 257.213 201.081C256.416 202.757 255.273 204.211 253.872 205.329L228.418 226.365C227.841 226.826 227.143 227.075 226.427 227.075Z" fill="#CCCCCC"/>
<path d="M200.66 126.898V117.091L216.83 109.446L232.249 117.091V126.898C232.249 127.325 232.092 127.735 231.814 128.036C231.535 128.338 231.157 128.508 230.762 128.508H202.146C201.752 128.508 201.374 128.338 201.095 128.036C200.816 127.735 200.66 127.325 200.66 126.898Z" fill="#2F2E41"/>
<path d="M216.088 103.453C213.71 95.2131 218.704 85.7701 226.086 82.5086C233.467 79.2472 242.299 81.527 248.528 86.9154C254.757 92.3039 258.621 100.375 260.669 108.718C262.717 117.06 263.105 125.76 263.483 134.383C272.553 136.186 278.723 147.834 275.581 157.221C272.439 166.608 260.81 171.271 252.779 166.365C244.747 161.458 242.421 148.27 248.218 140.505C250.96 136.83 252.492 132.27 252.571 127.547C252.65 122.823 251.271 118.206 248.653 114.427C246.034 110.648 242.326 107.922 238.116 106.682C233.906 105.443 229.434 105.759 225.408 107.582C220.938 109.606 215.33 104.347 216.088 103.453Z" fill="#2F2E41"/>
<path d="M114.178 162.348C103.319 162.271 92.5964 159.728 82.7018 154.884C82.1128 154.6 81.6129 154.136 81.2629 153.55C80.9129 152.963 80.728 152.279 80.7307 151.581V122.273C80.7317 121.313 81.0844 120.393 81.7115 119.714C82.3385 119.035 83.1887 118.653 84.0755 118.652H144.281C145.168 118.653 146.018 119.035 146.645 119.714C147.272 120.393 147.625 121.313 147.626 122.273V151.581C147.629 152.28 147.444 152.963 147.094 153.55C146.744 154.136 146.244 154.6 145.655 154.884C135.76 159.728 125.037 162.271 114.178 162.348Z" fill="#6C63FF"/>
<path d="M114.17 138.605C113.724 138.606 113.282 138.509 112.87 138.322L65.1279 116.513C64.5123 116.232 63.9885 115.758 63.6242 115.151C63.2599 114.545 63.0717 113.834 63.0839 113.111C63.0962 112.387 63.3083 111.684 63.6929 111.093C64.0775 110.501 64.6169 110.048 65.2417 109.791L112.985 90.1808C113.754 89.8635 114.604 89.8654 115.372 90.1863L162.475 109.797C163.096 110.055 163.632 110.509 164.014 111.099C164.396 111.689 164.606 112.389 164.618 113.11C164.631 113.83 164.444 114.539 164.083 115.144C163.721 115.749 163.201 116.223 162.589 116.507L115.486 138.315C115.07 138.507 114.622 138.606 114.17 138.605Z" fill="#6C63FF"/>
<path d="M86.3053 156.878C88.7683 156.878 90.7649 154.716 90.7649 152.05C90.7649 149.383 88.7683 147.221 86.3053 147.221C83.8422 147.221 81.8456 149.383 81.8456 152.05C81.8456 154.716 83.8422 156.878 86.3053 156.878Z" fill="#3F3D56"/>
<path opacity="0.2" d="M162.752 113.411L115.648 135.22C115.281 135.39 114.886 135.478 114.486 135.479C114.087 135.48 113.692 135.394 113.324 135.226L65.5813 113.417C64.9818 113.15 64.4816 112.674 64.1597 112.065C63.9492 112.46 63.8188 112.899 63.7771 113.353C63.7353 113.807 63.7833 114.265 63.9177 114.698C64.0522 115.13 64.27 115.527 64.5569 115.861C64.8437 116.195 65.1929 116.46 65.5813 116.637L113.324 138.445C113.692 138.613 114.087 138.699 114.486 138.698C114.886 138.697 115.281 138.609 115.648 138.439L162.752 116.63C163.139 116.452 163.486 116.186 163.77 115.852C164.055 115.518 164.271 115.122 164.404 114.69C164.538 114.259 164.585 113.802 164.542 113.349C164.5 112.896 164.37 112.459 164.16 112.065C163.841 112.669 163.346 113.143 162.752 113.411Z" fill="black"/>
<path d="M86.6801 152.031C86.8772 152.031 87.0663 151.946 87.2056 151.795C87.345 151.644 87.4233 151.439 87.4233 151.226V124.297L111.938 114.628C112.135 114.631 112.325 114.549 112.466 114.401C112.608 114.252 112.689 114.049 112.692 113.835C112.695 113.622 112.619 113.416 112.482 113.263C112.345 113.109 112.157 113.022 111.96 113.018L87.4455 122.688C87.2482 122.683 87.0521 122.721 86.8689 122.801C86.6858 122.881 86.5195 123 86.3801 123.151C86.2392 123.3 86.1274 123.479 86.0512 123.675C85.9751 123.872 85.9362 124.084 85.9368 124.297V151.226C85.9368 151.439 86.0151 151.644 86.1545 151.795C86.2939 151.946 86.4829 152.031 86.6801 152.031Z" fill="#3F3D56"/>
</g>
<defs>
<filter id="filter0_d_343_5" x="143" y="0" width="436" height="414" filterUnits="userSpaceOnUse" color-interpolation-filters="sRGB">
<feFlood flood-opacity="0" result="BackgroundImageFix"/>
<feColorMatrix in="SourceAlpha" type="matrix" values="0 0 0 0 0 0 0 0 0 0 0 0 0 0 0 0 0 0 127 0" result="hardAlpha"/>
<feOffset dy="4"/>
<feGaussianBlur stdDeviation="2"/>
<feComposite in2="hardAlpha" operator="out"/>
<feColorMatrix type="matrix" values="0 0 0 0 0 0 0 0 0 0 0 0 0 0 0 0 0 0 0.25 0"/>
<feBlend mode="normal" in2="BackgroundImageFix" result="effect1_dropShadow_343_5"/>
<feBlend mode="normal" in="SourceGraphic" in2="effect1_dropShadow_343_5" result="shape"/>
</filter>
<clipPath id="clip0_343_5">
<rect width="553" height="434" fill="white" transform="translate(0 81)"/>
</clipPath>
</defs>
</svg>
