<svg width="683" height="562" viewBox="0 0 683 562" fill="none" xmlns="http://www.w3.org/2000/svg">
<g clip-path="url(#clip0_515_326)">
<path d="M555.847 56.4561C560.212 38.6568 556.062 17.8987 541.963 6.19092C541.688 26.1185 534.372 45.3062 521.311 60.3594C516.253 66.1465 510.025 72.0565 509.78 79.7386C509.627 84.5186 511.96 89.1097 515.176 92.6499C518.391 96.1901 522.447 98.8394 526.456 101.448L527.044 102.487C539.947 89.4722 551.483 74.2553 555.847 56.4561Z" fill="#F0F0F0"/>
<path d="M541.68 6.45091C547.087 20.6236 547.891 36.1396 543.978 50.7953C543.192 53.9653 541.91 56.9915 540.182 59.7625C538.41 62.4074 535.963 64.5298 533.094 65.909C530.445 67.2488 527.58 68.3124 525.303 70.2728C524.152 71.2936 523.23 72.5461 522.597 73.9483C521.964 75.3504 521.635 76.8705 521.631 78.4088C521.521 82.2415 522.795 85.8852 524.164 89.4051C525.685 93.3133 527.326 97.3486 526.974 101.628C526.932 102.146 527.739 102.182 527.781 101.664C528.393 94.2195 523.337 87.9312 522.535 80.7103C522.16 77.3409 522.799 73.8384 525.291 71.3818C527.469 69.2336 530.422 68.1342 533.117 66.8009C535.935 65.4964 538.391 63.5216 540.27 61.0491C542.135 58.375 543.53 55.4032 544.397 52.2609C546.463 45.2177 547.408 37.8936 547.198 30.5568C547.005 22.1821 545.38 13.9022 542.395 6.0752C542.21 5.59083 541.496 5.96971 541.68 6.45091Z" fill="white"/>
<path d="M545.516 46.1504C548.064 46.4731 550.644 45.8796 552.795 44.4759C554.945 43.0722 556.527 40.9496 557.258 38.4872C557.404 37.9885 556.635 37.7381 556.489 38.2375C555.813 40.5317 554.34 42.5087 552.334 43.8118C550.329 45.1149 547.923 45.6581 545.553 45.3435C545.037 45.2757 545.004 46.083 545.516 46.1504Z" fill="white"/>
<path d="M534.527 65.4066C531.274 61.2859 529.693 56.0903 530.1 50.8558C530.14 50.3372 529.333 50.3013 529.293 50.8192C528.879 56.2672 530.536 61.6707 533.931 65.9513C534.255 66.3591 534.849 65.8121 534.527 65.4066Z" fill="white"/>
<path d="M546.032 22.6302C545.02 22.7107 544.004 22.5387 543.075 22.1295C542.146 21.7203 541.333 21.0868 540.709 20.2859C540.391 19.8741 539.797 20.4216 540.113 20.8306C540.806 21.7123 541.705 22.4109 542.73 22.8652C543.755 23.3196 544.877 23.5159 545.995 23.4371C546.101 23.4385 546.204 23.3994 546.282 23.3279C546.361 23.2563 546.409 23.1577 546.417 23.0519C546.421 22.945 546.383 22.8408 546.311 22.7618C546.239 22.6828 546.139 22.6355 546.032 22.6302Z" fill="white"/>
<path d="M480.993 17.7136C481.184 17.9763 481.376 18.2391 481.565 18.5083C484.123 22.0537 486.388 25.8011 488.339 29.7134C488.495 30.0135 488.648 30.3199 488.795 30.6239C493.394 40.0996 496.195 50.3469 497.053 60.8449C497.391 65.0226 497.411 69.22 497.112 73.4006C496.698 79.1743 495.791 85.4015 497.266 90.8151C497.413 91.3816 497.596 91.9385 497.812 92.4825L525.731 103.124C525.807 103.117 525.881 103.116 525.956 103.108L527.052 103.584C527.082 103.369 527.109 103.146 527.14 102.932C527.158 102.807 527.17 102.681 527.188 102.556C527.198 102.473 527.208 102.389 527.222 102.314C527.225 102.286 527.229 102.258 527.23 102.237C527.244 102.162 527.249 102.09 527.26 102.022C527.415 100.775 527.56 99.5247 527.698 98.2712C527.7 98.2648 527.7 98.2648 527.696 98.256C528.835 88.7144 528.837 79.0715 527.703 69.5293C527.665 69.245 527.631 68.9545 527.58 68.6653C526.993 64.409 526.06 60.2078 524.788 56.1036C524.085 53.8585 523.268 51.6504 522.342 49.4879C519.937 43.9049 516.668 38.735 512.657 34.1676C504.659 25.0637 493.838 18.6191 481.905 17.7695C481.6 17.7481 481.3 17.7287 480.993 17.7136Z" fill="#F0F0F0"/>
<path d="M480.921 18.0919C493.771 26.1525 503.755 38.0571 509.454 52.1148C510.735 55.1194 511.534 58.307 511.822 61.5603C512 64.7386 511.324 67.9065 509.863 70.7351C508.555 73.3998 506.908 75.9739 506.27 78.9103C505.965 80.4182 505.983 81.9734 506.322 83.4739C506.661 84.9744 507.314 86.3863 508.236 87.6171C510.456 90.7435 513.667 92.8859 516.88 94.8719C520.447 97.077 524.186 99.3108 526.482 102.939C526.76 103.378 527.426 102.921 527.148 102.482C523.154 96.17 515.331 94.1933 510.344 88.9106C508.016 86.4457 506.418 83.2644 506.928 79.803C507.374 76.7763 509.07 74.1203 510.418 71.4337C511.883 68.6953 512.655 65.6398 512.667 62.5341C512.546 59.2766 511.871 56.0635 510.671 53.0324C508.08 46.1654 504.425 39.7486 499.84 34.017C494.643 27.4466 488.361 21.8134 481.266 17.3614C480.826 17.086 480.484 17.8183 480.921 18.0919Z" fill="white"/>
<path d="M507.885 47.4803C510.114 46.2039 511.817 44.1768 512.689 41.7611C513.561 39.3453 513.546 36.6982 512.647 34.2924C512.463 33.8063 511.699 34.0688 511.883 34.5556C512.724 36.7943 512.738 39.2601 511.921 41.508C511.104 43.7559 509.511 45.6378 507.429 46.814C506.976 47.0702 507.436 47.735 507.885 47.4803Z" fill="white"/>
<path d="M510.705 69.4714C505.626 68.1401 501.236 64.9435 498.409 60.519C498.129 60.0804 497.463 60.5376 497.743 60.9757C500.693 65.5744 505.268 68.8916 510.556 70.2654C511.061 70.3959 511.206 69.6012 510.705 69.4714Z" fill="white"/>
<path d="M494.136 28.39C493.377 29.0635 492.462 29.5379 491.474 29.7706C490.486 30.0032 489.456 29.9867 488.475 29.7227C487.973 29.5858 487.828 30.3807 488.327 30.5167C489.411 30.8034 490.549 30.8201 491.642 30.5656C492.734 30.311 493.747 29.7928 494.593 29.0563C494.679 28.9935 494.737 28.9006 494.756 28.7963C494.776 28.692 494.755 28.5842 494.698 28.4948C494.637 28.4069 494.544 28.3466 494.439 28.327C494.334 28.3073 494.225 28.33 494.136 28.39Z" fill="white"/>
<path d="M444.078 419.775C350.476 419.775 274.325 343.624 274.325 250.021C274.325 156.419 350.476 80.2684 444.078 80.2684C453.974 80.2672 463.851 81.1231 473.599 82.8265C473.72 82.8475 473.837 82.8922 473.941 82.9582C474.045 83.0242 474.135 83.11 474.206 83.2109C474.277 83.3118 474.328 83.4257 474.354 83.5461C474.381 83.6665 474.384 83.791 474.363 83.9125C474.342 84.034 474.297 84.1501 474.23 84.2541C474.164 84.3582 474.078 84.4482 473.977 84.5189C473.876 84.5896 473.762 84.6397 473.641 84.6663C473.521 84.6929 473.397 84.6954 473.275 84.6738C463.634 82.9895 453.865 82.1431 444.078 82.1442C351.51 82.1442 276.2 157.453 276.2 250.021C276.2 342.59 351.51 417.899 444.078 417.899C536.646 417.899 611.955 342.59 611.955 250.021C611.997 208.182 596.373 167.842 568.162 136.945C567.996 136.76 567.909 136.518 567.921 136.271C567.933 136.023 568.043 135.79 568.226 135.623C568.409 135.456 568.651 135.369 568.899 135.379C569.146 135.39 569.38 135.498 569.548 135.681C598.075 166.924 613.873 207.714 613.831 250.021C613.831 343.624 537.68 419.775 444.078 419.775Z" fill="#E4E4E4"/>
<path d="M518.926 138.488C537.475 138.488 552.512 123.451 552.512 104.902C552.512 86.353 537.475 71.3162 518.926 71.3162C500.377 71.3162 485.34 86.353 485.34 104.902C485.34 123.451 500.377 138.488 518.926 138.488Z" fill="#6C63FF"/>
<path d="M514.344 122.382C513.764 122.382 513.192 122.247 512.674 121.987C512.155 121.728 511.704 121.351 511.356 120.887L502.193 108.67C501.899 108.277 501.685 107.831 501.563 107.356C501.441 106.88 501.414 106.386 501.484 105.9C501.553 105.414 501.717 104.947 501.967 104.525C502.217 104.103 502.548 103.734 502.94 103.44C503.333 103.145 503.78 102.931 504.255 102.809C504.73 102.688 505.225 102.661 505.71 102.73C506.196 102.8 506.663 102.964 507.085 103.214C507.508 103.464 507.876 103.795 508.171 104.187L514.165 112.179L529.562 89.0851C530.113 88.2641 530.967 87.695 531.937 87.5026C532.907 87.3102 533.913 87.5101 534.736 88.0586C535.559 88.6072 536.131 89.4595 536.326 90.4288C536.521 91.3981 536.325 92.4054 535.779 93.2299L517.453 120.718C517.122 121.215 516.676 121.626 516.153 121.915C515.63 122.204 515.046 122.364 514.448 122.381C514.414 122.381 514.379 122.382 514.344 122.382Z" fill="white"/>
<path d="M439.71 223.678L387.918 79.5934L389.232 79.1212L379.706 52.6202L378.393 53.0928L362.491 8.85438C361.897 7.20212 360.983 5.68301 359.802 4.38379C358.621 3.08457 357.196 2.03069 355.608 1.28232C354.02 0.533941 352.299 0.105722 350.546 0.0221226C348.792 -0.0614765 347.039 0.201177 345.387 0.795083L251.757 34.4505C250.105 35.0444 248.586 35.9578 247.287 37.1388C245.988 38.3198 244.934 39.745 244.185 41.3333C243.437 42.9216 243.008 44.6417 242.925 46.3955C242.841 48.1492 243.104 49.9023 243.698 51.5546L254.785 82.4002L252.71 83.1994L259.788 101.579L261.449 100.939L262.919 105.027L261.151 105.708L268.229 124.088L269.583 123.566L320.917 266.378C321.509 268.032 322.421 269.554 323.601 270.855C324.781 272.156 326.207 273.211 327.796 273.96C329.385 274.709 331.107 275.136 332.861 275.218C334.616 275.3 336.37 275.035 338.022 274.438L431.651 240.782C434.985 239.58 437.706 237.103 439.217 233.897C440.728 230.69 440.905 227.015 439.71 223.678Z" fill="#3F3D56"/>
<path d="M333.098 269.689C331.779 269.686 330.494 269.277 329.416 268.518C328.338 267.759 327.52 266.686 327.073 265.446L249.038 48.355C248.464 46.7561 248.548 44.9944 249.272 43.4575C249.996 41.9205 251.301 40.7341 252.9 40.1593L272.822 32.9985L272.792 33.6954C272.741 34.9054 272.988 36.1093 273.512 37.2011C274.035 38.293 274.82 39.2393 275.795 39.9567C276.771 40.674 277.908 41.1404 279.106 41.3148C280.305 41.4892 281.528 41.3661 282.667 40.9566L326.879 25.0647C327.946 24.5757 328.883 23.8424 329.614 22.9241C330.345 22.0058 330.85 20.9283 331.088 19.7787C331.323 18.6483 331.287 17.4783 330.984 16.3642C330.68 15.2502 330.118 14.2237 329.342 13.3684L328.876 12.8495L349.453 5.45244C351.052 4.88008 352.813 4.96523 354.35 5.68925C355.886 6.41327 357.073 7.71705 357.65 9.3147L432.101 216.438C433.621 220.681 433.395 225.353 431.474 229.43C429.553 233.507 426.093 236.655 421.854 238.185L335.269 269.308C334.573 269.559 333.838 269.688 333.098 269.689Z" fill="white"/>
<path d="M325.469 115.711C339.455 115.711 350.792 104.374 350.792 90.3885C350.792 76.4034 339.455 65.0662 325.469 65.0662C311.484 65.0662 300.147 76.4034 300.147 90.3885C300.147 104.374 311.484 115.711 325.469 115.711Z" fill="#6C63FF"/>
<path d="M388.218 127.213L300.525 158.735C300.251 158.834 299.961 158.878 299.67 158.865C299.379 158.851 299.093 158.781 298.83 158.657C298.566 158.533 298.329 158.358 298.133 158.143C297.937 157.927 297.786 157.675 297.687 157.401C297.588 157.127 297.545 156.836 297.559 156.545C297.573 156.254 297.644 155.969 297.769 155.706C297.893 155.442 298.068 155.206 298.284 155.01C298.5 154.815 298.753 154.664 299.027 154.566L386.719 123.044C387.272 122.847 387.879 122.877 388.41 123.128C388.94 123.379 389.349 123.829 389.547 124.381C389.746 124.933 389.717 125.541 389.468 126.072C389.219 126.603 388.769 127.013 388.218 127.213Z" fill="#E6E6E6"/>
<path d="M362.176 147.199L333.332 157.567C333.058 157.666 332.767 157.711 332.476 157.697C332.185 157.684 331.9 157.613 331.636 157.489C331.373 157.365 331.136 157.191 330.94 156.975C330.744 156.76 330.592 156.508 330.494 156.234C330.395 155.96 330.352 155.669 330.366 155.378C330.38 155.087 330.451 154.802 330.576 154.538C330.7 154.275 330.875 154.039 331.091 153.843C331.307 153.648 331.559 153.496 331.833 153.398L360.678 143.03C361.23 142.831 361.84 142.86 362.371 143.111C362.902 143.361 363.313 143.813 363.511 144.365C363.71 144.918 363.681 145.527 363.431 146.059C363.18 146.59 362.729 147 362.176 147.199Z" fill="#E6E6E6"/>
<path d="M369.037 166.285L340.192 176.654C339.919 176.752 339.628 176.796 339.338 176.782C339.047 176.768 338.762 176.697 338.499 176.573C338.236 176.449 338 176.274 337.804 176.059C337.608 175.844 337.457 175.592 337.359 175.319C337.26 175.045 337.217 174.754 337.231 174.464C337.244 174.173 337.315 173.888 337.439 173.625C337.563 173.362 337.738 173.126 337.953 172.93C338.168 172.735 338.42 172.583 338.694 172.485L367.538 162.116C368.091 161.918 368.7 161.947 369.232 162.197C369.763 162.448 370.173 162.899 370.372 163.452C370.571 164.005 370.542 164.614 370.291 165.145C370.041 165.677 369.59 166.087 369.037 166.285Z" fill="#E6E6E6"/>
<path d="M372.551 176.061L343.706 186.43C343.432 186.529 343.142 186.573 342.851 186.56C342.56 186.546 342.274 186.476 342.01 186.352C341.747 186.228 341.51 186.053 341.314 185.838C341.118 185.623 340.966 185.37 340.867 185.096C340.769 184.822 340.725 184.531 340.739 184.24C340.753 183.949 340.825 183.664 340.949 183.4C341.074 183.137 341.249 182.901 341.465 182.705C341.681 182.51 341.933 182.359 342.208 182.261L371.052 171.892C371.326 171.793 371.617 171.749 371.908 171.762C372.199 171.776 372.485 171.846 372.748 171.97C373.012 172.094 373.248 172.269 373.445 172.484C373.641 172.7 373.792 172.952 373.891 173.226C373.989 173.5 374.033 173.791 374.019 174.082C374.005 174.373 373.933 174.658 373.809 174.922C373.685 175.185 373.509 175.421 373.293 175.617C373.078 175.812 372.825 175.963 372.551 176.061Z" fill="#E6E6E6"/>
<path d="M381.735 150.793L320.537 172.791C320.263 172.891 319.972 172.935 319.681 172.921C319.39 172.908 319.105 172.837 318.841 172.714C318.577 172.59 318.341 172.415 318.145 172.2C317.949 171.984 317.797 171.732 317.698 171.458C317.6 171.184 317.556 170.893 317.57 170.602C317.584 170.311 317.656 170.026 317.78 169.762C317.905 169.499 318.08 169.263 318.296 169.067C318.512 168.872 318.764 168.721 319.038 168.623L380.237 146.625C380.51 146.525 380.801 146.481 381.092 146.495C381.383 146.508 381.669 146.579 381.932 146.703C382.196 146.826 382.433 147.001 382.629 147.216C382.825 147.432 382.976 147.684 383.075 147.958C383.174 148.232 383.217 148.523 383.203 148.814C383.189 149.105 383.118 149.39 382.993 149.654C382.869 149.917 382.694 150.153 382.478 150.349C382.262 150.544 382.009 150.696 381.735 150.793Z" fill="#E6E6E6"/>
<path d="M369.408 199.792L358.935 203.557C357.995 203.894 356.96 203.844 356.057 203.418C355.154 202.992 354.457 202.225 354.119 201.286C353.781 200.346 353.83 199.311 354.256 198.407C354.681 197.504 355.448 196.806 356.387 196.468L366.86 192.703C367.8 192.366 368.835 192.416 369.738 192.842C370.641 193.268 371.339 194.035 371.676 194.975C372.014 195.914 371.965 196.95 371.54 197.853C371.114 198.756 370.348 199.454 369.408 199.792Z" fill="#6C63FF"/>
<path d="M286.875 33.7005C287.68 33.7005 288.332 33.0484 288.332 32.244C288.332 31.4396 287.68 30.7875 286.875 30.7875C286.071 30.7875 285.419 31.4396 285.419 32.244C285.419 33.0484 286.071 33.7005 286.875 33.7005Z" fill="white"/>
<path d="M119.374 114.16C135.698 94.9448 162.185 82.8351 186.603 89.1134C164.61 105.487 149.118 129.111 142.866 155.808C140.493 166.112 138.926 177.82 130.56 184.287C125.354 188.311 118.355 189.411 111.816 188.681C105.277 187.951 99.0532 185.565 92.9132 183.2L91.2808 183.381C95.3872 158.504 103.05 133.375 119.374 114.16Z" fill="#F0F0F0"/>
<path d="M186.542 89.6388C166.383 95.0372 148.437 106.65 135.254 122.828C132.354 126.261 130.014 130.129 128.318 134.29C126.798 138.397 126.405 142.836 127.18 147.147C127.822 151.18 128.946 155.231 128.597 159.351C128.387 161.457 127.734 163.494 126.681 165.33C125.628 167.166 124.199 168.759 122.487 170.003C118.303 173.216 113.215 174.734 108.187 176.045C102.604 177.501 96.7821 178.925 92.2953 182.766C91.7517 183.232 91.0612 182.361 91.6041 181.896C99.4103 175.212 110.497 175.779 119.193 170.852C123.251 168.552 126.641 165.016 127.371 160.258C128.009 156.098 126.854 151.919 126.168 147.841C125.35 143.647 125.571 139.317 126.812 135.228C128.29 130.994 130.478 127.043 133.282 123.542C139.469 115.562 146.872 108.603 155.22 102.922C164.712 96.3857 175.252 91.521 186.384 88.5387C187.073 88.3544 187.226 89.4557 186.542 89.6388Z" fill="white"/>
<path d="M139.193 117.369C136.779 114.789 135.36 111.435 135.191 107.905C135.022 104.376 136.113 100.901 138.269 98.1016C138.707 97.5366 139.606 98.1911 139.167 98.7568C137.154 101.36 136.138 104.597 136.303 107.883C136.467 111.169 137.801 114.289 140.063 116.678C140.554 117.198 139.681 117.886 139.193 117.369Z" fill="white"/>
<path d="M126.585 145.144C133.802 145.449 140.869 143.023 146.376 138.349C146.921 137.885 147.612 138.756 147.067 139.219C141.327 144.072 133.968 146.582 126.459 146.248C125.743 146.216 125.873 145.112 126.585 145.144Z" fill="white"/>
<path d="M164.997 97.8314C165.723 99.0244 166.734 100.018 167.939 100.724C169.144 101.43 170.505 101.825 171.901 101.875C172.617 101.898 172.486 103.002 171.775 102.979C170.233 102.917 168.73 102.478 167.397 101.702C166.063 100.925 164.941 99.8335 164.127 98.5227C164.04 98.4056 164 98.2597 164.017 98.1147C164.034 97.9697 164.105 97.8364 164.216 97.742C164.332 97.6511 164.479 97.6094 164.625 97.6262C164.771 97.6429 164.905 97.7167 164.997 97.8314Z" fill="white"/>
<path d="M222.913 166.373C222.466 166.371 222.019 166.369 221.566 166.375C215.551 166.382 209.547 166.878 203.613 167.857C203.153 167.926 202.688 168.002 202.231 168.084C187.959 170.596 174.278 175.736 161.883 183.242C156.953 186.234 152.258 189.596 147.838 193.3C141.735 198.415 135.525 204.447 128.301 207.168C127.55 207.46 126.782 207.706 126.001 207.903L91.6284 185.359C91.576 185.268 91.5181 185.185 91.4653 185.095L90.0518 184.257C90.2664 184.05 90.4934 183.84 90.708 183.633C90.8319 183.513 90.9636 183.397 91.0876 183.277C91.1726 183.198 91.2581 183.119 91.3304 183.043C91.3586 183.017 91.3872 182.991 91.4103 182.972C91.4826 182.896 91.5578 182.833 91.6249 182.765C92.8906 181.588 94.1668 180.417 95.4535 179.254C95.4587 179.246 95.4587 179.246 95.4715 179.243C105.298 170.401 115.949 162.301 127.49 156.075C127.838 155.888 128.19 155.693 128.553 155.516C133.771 152.739 139.207 150.392 144.807 148.501C147.877 147.475 150.997 146.605 154.155 145.894C162.318 144.074 170.716 143.55 179.042 144.339C195.64 145.916 211.548 152.783 222.116 165.401C222.386 165.724 222.649 166.042 222.913 166.373Z" fill="#F0F0F0"/>
<path d="M222.55 166.758C203.204 158.932 181.884 157.4 161.617 162.38C157.235 163.374 153.038 165.054 149.179 167.355C145.492 169.719 142.505 173.027 140.529 176.935C138.614 180.543 137.072 184.454 134.313 187.533C132.877 189.088 131.129 190.321 129.183 191.153C127.237 191.985 125.137 192.396 123.021 192.36C117.746 192.406 112.769 190.554 107.965 188.574C102.631 186.375 97.1258 184.007 91.2305 184.372C90.5162 184.417 90.4892 183.306 91.2024 183.262C101.459 182.625 109.97 189.752 119.88 191.054C124.505 191.661 129.34 190.878 132.787 187.519C135.802 184.582 137.395 180.549 139.303 176.88C141.175 173.039 143.959 169.715 147.411 167.198C151.141 164.707 155.267 162.869 159.613 161.762C169.358 159.115 179.458 158.016 189.544 158.507C201.058 159.002 212.403 161.464 223.087 165.785C223.748 166.053 223.207 167.024 222.55 166.758Z" fill="white"/>
<path d="M168.049 160.392C167.675 156.878 168.562 153.346 170.552 150.426C172.542 147.506 175.505 145.389 178.912 144.452C179.602 144.264 179.925 145.328 179.234 145.515C176.06 146.382 173.3 148.355 171.453 151.078C169.605 153.8 168.792 157.094 169.16 160.364C169.239 161.074 168.127 161.099 168.049 160.392Z" fill="white"/>
<path d="M141.26 174.979C146.839 179.567 153.942 181.884 161.153 181.468C161.867 181.426 161.895 182.537 161.181 182.579C153.676 182.998 146.289 180.572 140.494 175.784C139.942 175.327 140.711 174.524 141.26 174.979Z" fill="white"/>
<path d="M200.415 160.328C200.276 161.718 200.485 163.12 201.022 164.409C201.56 165.698 202.409 166.833 203.493 167.713C204.051 168.163 203.281 168.965 202.728 168.519C201.534 167.541 200.598 166.286 200.001 164.863C199.404 163.44 199.165 161.893 199.304 160.356C199.305 160.21 199.361 160.07 199.462 159.964C199.563 159.858 199.7 159.795 199.845 159.786C199.992 159.784 200.135 159.839 200.241 159.94C200.348 160.041 200.41 160.181 200.415 160.328Z" fill="white"/>
<path d="M609.282 483.481C627.081 487.845 647.839 483.695 659.547 469.597C639.619 469.321 620.431 462.006 605.378 448.945C599.591 443.887 593.681 437.658 585.999 437.413C581.219 437.26 576.628 439.594 573.088 442.809C569.548 446.025 566.898 450.081 564.289 454.089L563.251 454.678C576.265 467.58 591.482 479.117 609.282 483.481Z" fill="#F0F0F0"/>
<path d="M659.287 469.313C645.114 474.72 629.598 475.525 614.943 471.611C611.773 470.825 608.746 469.544 605.975 467.815C603.331 466.044 601.208 463.596 599.829 460.728C598.489 458.078 597.425 455.213 595.465 452.936C594.444 451.785 593.192 450.863 591.79 450.23C590.388 449.598 588.867 449.268 587.329 449.264C583.496 449.154 579.853 450.428 576.333 451.797C572.425 453.318 568.389 454.959 564.11 454.608C563.592 454.565 563.556 455.372 564.074 455.415C571.518 456.026 577.807 450.97 585.028 450.168C588.397 449.794 591.9 450.433 594.356 452.924C596.504 455.102 597.604 458.056 598.937 460.75C600.242 463.568 602.216 466.024 604.689 467.904C607.363 469.768 610.335 471.164 613.477 472.031C620.52 474.096 627.844 475.041 635.181 474.831C643.556 474.638 651.836 473.014 659.663 470.028C660.147 469.844 659.768 469.13 659.287 469.313Z" fill="white"/>
<path d="M619.587 473.149C619.265 475.697 619.858 478.277 621.262 480.428C622.666 482.579 624.788 484.161 627.25 484.891C627.749 485.037 628 484.269 627.5 484.123C625.206 483.447 623.229 481.973 621.926 479.968C620.623 477.962 620.08 475.557 620.394 473.186C620.462 472.671 619.655 472.637 619.587 473.149Z" fill="white"/>
<path d="M600.331 462.16C604.452 458.907 609.647 457.326 614.882 457.733C615.4 457.774 615.436 456.967 614.918 456.926C609.47 456.513 604.067 458.169 599.786 461.564C599.379 461.888 599.925 462.482 600.331 462.16Z" fill="white"/>
<path d="M643.108 473.665C643.027 472.653 643.199 471.637 643.608 470.708C644.017 469.779 644.651 468.967 645.452 468.343C645.864 468.024 645.316 467.43 644.907 467.746C644.025 468.44 643.327 469.338 642.873 470.364C642.418 471.389 642.222 472.51 642.301 473.629C642.299 473.735 642.338 473.837 642.41 473.916C642.481 473.994 642.58 474.042 642.686 474.05C642.793 474.055 642.897 474.017 642.976 473.945C643.055 473.872 643.102 473.772 643.108 473.665Z" fill="white"/>
<path d="M648.024 408.626C647.761 408.818 647.499 409.009 647.229 409.199C643.684 411.757 639.937 414.022 636.024 415.973C635.724 416.128 635.418 416.282 635.114 416.428C625.638 421.028 615.391 423.828 604.893 424.687C600.715 425.024 596.518 425.044 592.337 424.745C586.563 424.332 580.336 423.424 574.923 424.899C574.356 425.047 573.799 425.229 573.255 425.446L562.613 453.365C562.621 453.441 562.622 453.514 562.63 453.59L562.154 454.685C562.368 454.716 562.591 454.743 562.806 454.773C562.93 454.791 563.057 454.803 563.182 454.822C563.265 454.832 563.349 454.842 563.424 454.856C563.452 454.859 563.48 454.862 563.501 454.863C563.576 454.877 563.647 454.882 563.716 454.894C564.963 455.048 566.213 455.194 567.467 455.331C567.473 455.334 567.473 455.334 567.482 455.33C577.023 456.468 586.666 456.47 596.208 455.337C596.493 455.299 596.783 455.264 597.072 455.214C601.329 454.627 605.53 453.693 609.634 452.422C611.879 451.718 614.087 450.902 616.25 449.975C621.833 447.57 627.003 444.302 631.57 440.29C640.674 432.292 647.119 421.471 647.968 409.538C647.99 409.233 648.009 408.934 648.024 408.626Z" fill="#F0F0F0"/>
<path d="M647.646 408.554C639.585 421.404 627.681 431.388 613.623 437.087C610.618 438.368 607.431 439.167 604.177 439.455C600.999 439.633 597.831 438.957 595.003 437.497C592.338 436.188 589.764 434.541 586.827 433.903C585.319 433.599 583.764 433.617 582.264 433.955C580.763 434.294 579.351 434.947 578.121 435.87C574.994 438.089 572.852 441.3 570.866 444.513C568.661 448.08 566.427 451.82 562.799 454.115C562.359 454.393 562.817 455.059 563.255 454.781C569.568 450.788 571.544 442.965 576.827 437.977C579.292 435.649 582.473 434.051 585.935 434.561C588.961 435.007 591.617 436.703 594.304 438.051C597.042 439.516 600.098 440.288 603.204 440.3C606.461 440.179 609.674 439.504 612.705 438.305C619.572 435.713 625.989 432.058 631.721 427.473C638.291 422.277 643.924 415.995 648.376 408.899C648.652 408.459 647.919 408.118 647.646 408.554Z" fill="white"/>
<path d="M618.258 435.518C619.534 437.747 621.561 439.45 623.977 440.322C626.393 441.194 629.04 441.179 631.445 440.28C631.932 440.096 631.669 439.332 631.182 439.516C628.944 440.357 626.478 440.371 624.23 439.554C621.982 438.738 620.1 437.144 618.924 435.062C618.668 434.61 618.003 435.069 618.258 435.518Z" fill="white"/>
<path d="M596.266 438.338C597.598 433.259 600.794 428.869 605.219 426.042C605.657 425.763 605.2 425.097 604.762 425.376C600.163 428.326 596.846 432.902 595.472 438.19C595.342 438.694 596.137 438.839 596.266 438.338Z" fill="white"/>
<path d="M637.348 421.77C636.674 421.01 636.2 420.095 635.967 419.107C635.735 418.119 635.751 417.089 636.015 416.109C636.152 415.606 635.357 415.461 635.221 415.96C634.934 417.045 634.918 418.183 635.172 419.275C635.427 420.367 635.945 421.381 636.682 422.226C636.744 422.312 636.837 422.37 636.942 422.39C637.046 422.409 637.154 422.388 637.243 422.331C637.331 422.27 637.391 422.177 637.411 422.072C637.43 421.967 637.408 421.858 637.348 421.77Z" fill="white"/>
<path d="M680.603 312.403L653.461 358.077L654.493 358.621L645.302 376.046L643.389 375.034L637.349 385.191L638.85 386.053L629.002 403.104L627.295 402.119L538.733 551.164C536.41 555.065 532.635 557.884 528.236 559.004C523.836 560.124 519.172 559.453 515.267 557.138L350.626 459.31C346.725 456.988 343.905 453.212 342.785 448.813C341.665 444.414 342.336 439.749 344.652 435.845L486.522 197.084C488.845 193.183 492.62 190.363 497.019 189.243C501.418 188.123 506.082 188.794 509.987 191.109L674.629 288.938C678.528 291.262 681.347 295.037 682.467 299.436C683.587 303.834 682.917 308.498 680.603 312.403Z" fill="#3F3D56"/>
<path d="M521.135 547.922L355.914 449.75C354.711 449.034 353.842 447.87 353.497 446.514C353.152 445.158 353.359 443.72 354.072 442.517L496.884 202.167C497.6 200.965 498.764 200.096 500.12 199.751C501.476 199.406 502.914 199.613 504.117 200.326L669.339 298.498C670.541 299.214 671.41 300.378 671.755 301.734C672.1 303.09 671.894 304.528 671.18 305.731L528.368 546.081C527.652 547.283 526.489 548.152 525.133 548.497C523.777 548.842 522.339 548.635 521.135 547.922Z" fill="white"/>
<path d="M589.004 245.613C589.808 245.613 590.46 244.961 590.46 244.157C590.46 243.352 589.808 242.7 589.004 242.7C588.199 242.7 587.547 243.352 587.547 244.157C587.547 244.961 588.199 245.613 589.004 245.613Z" fill="white"/>
<path d="M579.99 417.785L442.071 335.835C441.638 335.581 441.26 335.243 440.959 334.842C440.657 334.441 440.437 333.984 440.313 333.498C440.188 333.011 440.16 332.505 440.232 332.008C440.303 331.511 440.472 331.033 440.728 330.602C440.984 330.17 441.324 329.793 441.726 329.493C442.128 329.193 442.586 328.975 443.073 328.852C443.559 328.729 444.066 328.704 444.562 328.777C445.059 328.85 445.536 329.021 445.967 329.279L583.886 411.228C584.318 411.483 584.696 411.821 584.998 412.222C585.3 412.623 585.519 413.08 585.644 413.566C585.769 414.052 585.796 414.558 585.725 415.055C585.654 415.552 585.485 416.03 585.229 416.462C584.972 416.893 584.633 417.27 584.231 417.57C583.828 417.871 583.371 418.088 582.884 418.211C582.397 418.334 581.891 418.36 581.394 418.287C580.898 418.213 580.42 418.043 579.99 417.785Z" fill="#E6E6E6"/>
<path d="M524.92 405.086L479.554 378.131C479.124 377.875 478.748 377.537 478.448 377.136C478.148 376.735 477.93 376.279 477.806 375.793C477.683 375.308 477.656 374.803 477.727 374.307C477.799 373.812 477.967 373.335 478.223 372.904C478.479 372.474 478.817 372.098 479.218 371.798C479.62 371.498 480.076 371.28 480.561 371.156C481.047 371.033 481.552 371.006 482.047 371.078C482.543 371.15 483.02 371.318 483.45 371.574L528.816 398.53C529.246 398.785 529.622 399.123 529.922 399.525C530.222 399.926 530.44 400.382 530.563 400.867C530.687 401.353 530.714 401.857 530.642 402.353C530.57 402.849 530.402 403.325 530.146 403.756C529.89 404.186 529.552 404.562 529.151 404.862C528.75 405.162 528.294 405.38 527.808 405.504C527.323 405.627 526.818 405.654 526.323 405.582C525.827 405.511 525.35 405.342 524.92 405.086Z" fill="#E6E6E6"/>
<path d="M507.083 435.105L461.718 408.149C460.849 407.632 460.22 406.792 459.971 405.812C459.722 404.832 459.872 403.793 460.388 402.923C460.905 402.054 461.746 401.425 462.726 401.176C463.706 400.926 464.745 401.076 465.614 401.592L510.979 428.548C511.41 428.804 511.786 429.142 512.086 429.543C512.386 429.944 512.604 430.4 512.727 430.885C512.851 431.371 512.877 431.876 512.806 432.371C512.734 432.867 512.566 433.344 512.31 433.774C512.054 434.205 511.716 434.581 511.315 434.88C510.914 435.18 510.458 435.398 509.972 435.522C509.487 435.645 508.982 435.672 508.486 435.6C507.991 435.529 507.514 435.36 507.083 435.105Z" fill="#E6E6E6"/>
<path d="M497.948 450.48L452.583 423.524C452.151 423.269 451.774 422.931 451.473 422.53C451.172 422.129 450.953 421.672 450.828 421.186C450.704 420.7 450.677 420.195 450.748 419.698C450.82 419.202 450.988 418.724 451.244 418.293C451.501 417.862 451.839 417.486 452.241 417.186C452.643 416.886 453.1 416.668 453.586 416.545C454.073 416.421 454.578 416.395 455.075 416.468C455.571 416.541 456.048 416.71 456.479 416.968L501.844 443.923C502.276 444.178 502.655 444.515 502.956 444.917C503.258 445.318 503.478 445.775 503.603 446.261C503.728 446.747 503.755 447.253 503.684 447.75C503.613 448.247 503.444 448.725 503.187 449.157C502.931 449.589 502.592 449.965 502.189 450.266C501.787 450.566 501.329 450.784 500.842 450.906C500.356 451.029 499.849 451.055 499.353 450.982C498.856 450.908 498.379 450.738 497.948 450.48Z" fill="#E6E6E6"/>
<path d="M541.569 435.002L445.319 377.812C444.454 377.293 443.83 376.453 443.583 375.475C443.336 374.497 443.487 373.461 444.002 372.594C444.517 371.727 445.355 371.099 446.332 370.848C447.309 370.597 448.346 370.744 449.215 371.255L545.465 428.446C545.898 428.7 546.276 429.038 546.578 429.439C546.88 429.841 547.099 430.297 547.224 430.784C547.349 431.27 547.376 431.776 547.305 432.273C547.234 432.77 547.065 433.248 546.809 433.68C546.552 434.111 546.213 434.488 545.811 434.788C545.408 435.089 544.95 435.306 544.464 435.429C543.977 435.552 543.471 435.578 542.974 435.504C542.477 435.431 542 435.261 541.569 435.002Z" fill="#E6E6E6"/>
<path d="M523.224 508.092L506.752 498.304C505.276 497.425 504.209 495.995 503.786 494.329C503.363 492.664 503.618 490.898 504.496 489.421C505.374 487.943 506.802 486.875 508.467 486.45C510.133 486.025 511.898 486.279 513.377 487.155L529.849 496.942C531.327 497.821 532.396 499.251 532.82 500.917C533.245 502.584 532.989 504.351 532.111 505.829C531.232 507.308 529.803 508.377 528.136 508.801C526.469 509.225 524.702 508.97 523.224 508.092Z" fill="#6C63FF"/>
<path d="M553.956 349.18C572.603 349.18 587.719 334.063 587.719 315.417C587.719 296.77 572.603 281.654 553.956 281.654C535.31 281.654 520.193 296.77 520.193 315.417C520.193 334.063 535.31 349.18 553.956 349.18Z" fill="#6C63FF"/>
<path d="M0.397705 452.617H457.306V188.095C457.304 186.113 456.516 184.213 455.114 182.812C453.713 181.41 451.812 180.622 449.83 180.62H7.8734C5.89144 180.622 3.9913 181.41 2.58982 182.812C1.18835 184.213 0.399994 186.113 0.397705 188.095V452.617Z" fill="#CACACA"/>
<path d="M443.189 190.959H14.5144V434.325H443.189V190.959Z" fill="white"/>
<path d="M6.14653e-10 445.46V478.102C-1.47789e-05 479.455 0.266508 480.795 0.784352 482.045C1.3022 483.296 2.06122 484.432 3.01809 485.388C3.97495 486.345 5.11093 487.104 6.36114 487.622C7.61135 488.14 8.95131 488.407 10.3045 488.407H178.946V552.827H176.706C176.53 552.827 176.356 552.862 176.193 552.929C176.031 552.996 175.883 553.095 175.759 553.219C175.635 553.343 175.536 553.491 175.469 553.653C175.402 553.816 175.367 553.99 175.367 554.166V558.646C175.367 558.822 175.402 558.996 175.469 559.159C175.536 559.321 175.635 559.469 175.759 559.593C175.883 559.717 176.031 559.816 176.193 559.883C176.356 559.95 176.53 559.985 176.706 559.985H281.396C281.572 559.985 281.746 559.95 281.908 559.883C282.071 559.816 282.218 559.717 282.342 559.593C282.467 559.469 282.565 559.321 282.633 559.159C282.7 558.996 282.734 558.822 282.734 558.646V554.166C282.734 553.99 282.7 553.816 282.633 553.653C282.565 553.491 282.467 553.343 282.342 553.219C282.218 553.095 282.071 552.996 281.908 552.929C281.746 552.862 281.572 552.827 281.396 552.827H279.156V488.407H447.797C449.15 488.407 450.49 488.14 451.74 487.622C452.991 487.104 454.126 486.345 455.083 485.388C456.04 484.432 456.799 483.296 457.317 482.045C457.835 480.795 458.101 479.455 458.101 478.102V445.46L6.14653e-10 445.46Z" fill="#3F3D56"/>
<path d="M381.16 272.35H178.156C176.876 272.35 175.649 271.841 174.744 270.937C173.839 270.032 173.331 268.804 173.331 267.525C173.331 266.245 173.839 265.017 174.744 264.113C175.649 263.208 176.876 262.699 178.156 262.699H381.16C382.439 262.699 383.667 263.208 384.572 264.113C385.477 265.017 385.985 266.245 385.985 267.525C385.985 268.804 385.477 270.032 384.572 270.937C383.667 271.841 382.439 272.35 381.16 272.35Z" fill="#E6E6E6"/>
<path d="M313.045 294.132H246.271C244.991 294.132 243.764 293.624 242.859 292.719C241.954 291.814 241.445 290.586 241.445 289.307C241.445 288.027 241.954 286.799 242.859 285.894C243.764 284.989 244.991 284.481 246.271 284.481H313.045C314.324 284.481 315.552 284.989 316.457 285.894C317.362 286.799 317.87 288.027 317.87 289.307C317.87 290.586 317.362 291.814 316.457 292.719C315.552 293.624 314.324 294.132 313.045 294.132Z" fill="#E6E6E6"/>
<path d="M313.045 338.316H246.271C244.991 338.316 243.764 337.808 242.859 336.903C241.954 335.998 241.445 334.77 241.445 333.491C241.445 332.211 241.954 330.983 242.859 330.078C243.764 329.173 244.991 328.665 246.271 328.665H313.045C314.324 328.665 315.552 329.173 316.457 330.078C317.362 330.983 317.87 332.211 317.87 333.491C317.87 334.77 317.362 335.998 316.457 336.903C315.552 337.808 314.324 338.316 313.045 338.316Z" fill="#E6E6E6"/>
<path d="M313.045 360.947H246.271C245.637 360.947 245.01 360.822 244.424 360.579C243.839 360.337 243.307 359.981 242.859 359.533C242.411 359.085 242.055 358.553 241.813 357.968C241.57 357.382 241.446 356.755 241.446 356.121C241.446 355.488 241.57 354.86 241.813 354.275C242.055 353.689 242.411 353.157 242.859 352.709C243.307 352.261 243.839 351.906 244.424 351.663C245.01 351.421 245.637 351.296 246.271 351.296H313.045C313.678 351.296 314.306 351.421 314.891 351.663C315.477 351.906 316.008 352.261 316.457 352.709C316.905 353.157 317.26 353.689 317.503 354.275C317.745 354.86 317.87 355.488 317.87 356.121C317.87 356.755 317.745 357.382 317.503 357.968C317.26 358.553 316.905 359.085 316.457 359.533C316.008 359.981 315.477 360.337 314.891 360.579C314.306 360.822 313.678 360.947 313.045 360.947Z" fill="#E6E6E6"/>
<path d="M350.493 315.914H208.822C207.542 315.914 206.315 315.406 205.41 314.501C204.505 313.596 203.997 312.369 203.997 311.089C203.997 309.809 204.505 308.582 205.41 307.677C206.315 306.772 207.542 306.264 208.822 306.264H350.493C351.773 306.264 353 306.772 353.905 307.677C354.81 308.582 355.318 309.809 355.318 311.089C355.318 312.369 354.81 313.596 353.905 314.501C353 315.406 351.773 315.914 350.493 315.914Z" fill="#E6E6E6"/>
<path d="M377.78 407.281H353.535C351.359 407.281 349.271 406.417 347.733 404.878C346.194 403.339 345.329 401.252 345.329 399.076C345.329 396.9 346.194 394.813 347.733 393.274C349.271 391.735 351.359 390.871 353.535 390.871H377.78C379.956 390.871 382.043 391.735 383.582 393.274C385.121 394.813 385.985 396.9 385.985 399.076C385.985 401.252 385.121 403.339 383.582 404.878C382.043 406.417 379.956 407.281 377.78 407.281Z" fill="#6C63FF"/>
<path d="M114.32 347.727C137.629 347.727 156.524 328.832 156.524 305.523C156.524 282.215 137.629 263.32 114.32 263.32C91.0117 263.32 72.1165 282.215 72.1165 305.523C72.1165 328.832 91.0117 347.727 114.32 347.727Z" fill="#6C63FF"/>
<path d="M608.189 561.726H1.11664C0.821036 561.725 0.537836 561.607 0.329113 561.397C0.12039 561.188 0.00317383 560.904 0.00317383 560.609C0.00317383 560.313 0.12039 560.03 0.329113 559.82C0.537836 559.611 0.821036 559.493 1.11664 559.492H608.189C608.485 559.493 608.768 559.611 608.977 559.82C609.185 560.03 609.303 560.313 609.303 560.609C609.303 560.904 609.185 561.188 608.977 561.397C608.768 561.607 608.485 561.725 608.189 561.726Z" fill="#CACACA"/>
<path d="M228.653 185.789C229.532 185.789 230.244 185.077 230.244 184.199C230.244 183.32 229.532 182.608 228.653 182.608C227.775 182.608 227.062 183.32 227.062 184.199C227.062 185.077 227.775 185.789 228.653 185.789Z" fill="white"/>
</g>
<defs>
<clipPath id="clip0_515_326">
<rect width="683" height="561.726" fill="white"/>
</clipPath>
</defs>
</svg>
