<svg width="841" height="882" viewBox="0 0 841 882" fill="none" xmlns="http://www.w3.org/2000/svg">
<g filter="url(#filter0_d_343_3)">
<path d="M44.8067 0H841V882C841 882 446.904 882 404.894 882C362.884 882 274.237 844.102 220.849 792.422C169.408 742.626 126.244 696.882 119.45 630.492C109.577 534.023 177.339 466.84 194.093 416.883C210.847 366.926 220.849 327.305 148.832 279.07C90.2198 239.814 12.2656 213.609 4.79703 117.141C-2.67155 20.6719 44.8067 0 44.8067 0Z" fill="#00A6ED"/>
</g>
<g clip-path="url(#clip0_343_3)">
<path d="M207.087 664.77C227.911 664.77 244.792 647.889 244.792 627.066C244.792 606.242 227.911 589.361 207.087 589.361C186.264 589.361 169.383 606.242 169.383 627.066C169.383 647.889 186.264 664.77 207.087 664.77Z" fill="#F2F2F2"/>
<path d="M213.218 659.252C234.042 659.252 250.922 642.371 250.922 621.548C250.922 600.724 234.042 583.844 213.218 583.844C192.395 583.844 175.514 600.724 175.514 621.548C175.514 642.371 192.395 659.252 213.218 659.252Z" fill="#6C63FF"/>
<path d="M710.084 579.829H243.583V581.102H710.084V579.829Z" fill="#3F3D56"/>
<path d="M485.185 306.871H319.606V303.458H244.525V306.871H78.2638C76.793 306.871 75.3365 307.16 73.9777 307.723C72.6188 308.286 71.3841 309.111 70.3441 310.151C69.304 311.191 68.479 312.426 67.9162 313.785C67.3533 315.144 67.0636 316.6 67.0636 318.071V544.8C67.0636 547.77 68.2436 550.619 70.3441 552.719C72.4445 554.82 75.2933 556 78.2638 556H485.185C488.155 556 491.004 554.82 493.104 552.719C495.205 550.619 496.385 547.77 496.385 544.8V318.071C496.385 316.6 496.095 315.144 495.532 313.785C494.969 312.426 494.144 311.191 493.104 310.151C492.064 309.111 490.83 308.286 489.471 307.723C488.112 307.16 486.656 306.871 485.185 306.871Z" fill="#3F3D56"/>
<path d="M481.369 326.665H82.0796V551.905H481.369V326.665Z" fill="#6C63FF"/>
<path d="M281.383 320.522C283.645 320.522 285.478 318.688 285.478 316.426C285.478 314.165 283.645 312.331 281.383 312.331C279.121 312.331 277.288 314.165 277.288 316.426C277.288 318.688 279.121 320.522 281.383 320.522Z" fill="#6C63FF"/>
<path opacity="0.1" d="M367.179 551.905H82.0798V326.665L367.179 551.905Z" fill="black"/>
<path d="M144.556 535.05C165.754 535.05 182.937 517.866 182.937 496.669C182.937 475.472 165.754 458.288 144.556 458.288C123.359 458.288 106.176 475.472 106.176 496.669C106.176 517.866 123.359 535.05 144.556 535.05Z" fill="#F2F2F2"/>
<path d="M411.846 448.138H374.548V455.932H411.846V448.138Z" fill="#3F3D56"/>
<path d="M456.938 387.46H329.457V390.8H456.938V387.46Z" fill="#3F3D56"/>
<path d="M456.938 398.037H329.457V401.377H456.938V398.037Z" fill="#3F3D56"/>
<path d="M456.938 408.614H329.457V411.954H456.938V408.614Z" fill="#3F3D56"/>
<path d="M456.938 419.191H329.457V422.531H456.938V419.191Z" fill="#3F3D56"/>
<path d="M456.938 429.768H329.457V433.108H456.938V429.768Z" fill="#3F3D56"/>
<path d="M456.938 331.234H441.35V346.822H456.938V331.234Z" fill="#F2F2F2"/>
<path d="M464.175 354.058H445.247V335.131H464.175V354.058ZM446.07 353.236H463.352V335.954H446.07V353.236Z" fill="#3F3D56"/>
<path d="M507.596 547.81H468.628V545.002C468.628 544.929 468.614 544.856 468.586 544.789C468.558 544.721 468.517 544.66 468.465 544.608C468.413 544.557 468.352 544.516 468.284 544.488C468.217 544.46 468.144 544.445 468.071 544.445H454.711C454.638 544.445 454.565 544.46 454.498 544.488C454.43 544.516 454.369 544.557 454.317 544.608C454.266 544.66 454.225 544.721 454.197 544.789C454.169 544.856 454.154 544.929 454.154 545.002V547.81H445.804V545.002C445.804 544.929 445.79 544.856 445.762 544.789C445.734 544.721 445.693 544.66 445.641 544.608C445.589 544.557 445.528 544.516 445.46 544.488C445.393 544.46 445.32 544.445 445.247 544.445H431.887C431.814 544.445 431.741 544.46 431.674 544.488C431.606 544.516 431.545 544.557 431.493 544.608C431.441 544.66 431.4 544.721 431.372 544.789C431.344 544.856 431.33 544.929 431.33 545.002V547.81H422.98V545.002C422.98 544.929 422.965 544.856 422.937 544.789C422.909 544.721 422.868 544.66 422.817 544.608C422.765 544.557 422.704 544.516 422.636 544.488C422.569 544.46 422.496 544.445 422.423 544.445H409.063C408.99 544.445 408.917 544.46 408.85 544.488C408.782 544.516 408.721 544.557 408.669 544.608C408.617 544.66 408.576 544.721 408.548 544.789C408.52 544.856 408.506 544.929 408.506 545.002V547.81H400.156V545.002C400.156 544.929 400.141 544.856 400.113 544.789C400.085 544.721 400.044 544.66 399.993 544.608C399.941 544.557 399.88 544.516 399.812 544.488C399.744 544.46 399.672 544.445 399.599 544.445H386.238C386.165 544.445 386.093 544.46 386.025 544.488C385.958 544.516 385.897 544.557 385.845 544.608C385.793 544.66 385.752 544.721 385.724 544.789C385.696 544.856 385.682 544.929 385.682 545.002V547.81H377.331V545.002C377.331 544.929 377.317 544.856 377.289 544.789C377.261 544.721 377.22 544.66 377.168 544.608C377.117 544.557 377.055 544.516 376.988 544.488C376.92 544.46 376.848 544.445 376.775 544.445H363.414C363.341 544.445 363.269 544.46 363.201 544.488C363.134 544.516 363.072 544.557 363.021 544.608C362.969 544.66 362.928 544.721 362.9 544.789C362.872 544.856 362.858 544.929 362.858 545.002V547.81H354.507V545.002C354.507 544.929 354.493 544.856 354.465 544.789C354.437 544.721 354.396 544.66 354.344 544.608C354.293 544.557 354.231 544.516 354.164 544.488C354.096 544.46 354.024 544.445 353.951 544.445H340.59C340.517 544.445 340.445 544.46 340.377 544.488C340.31 544.516 340.248 544.557 340.197 544.608C340.145 544.66 340.104 544.721 340.076 544.789C340.048 544.856 340.034 544.929 340.034 545.002V547.81H331.683V545.002C331.683 544.929 331.669 544.856 331.641 544.789C331.613 544.721 331.572 544.66 331.52 544.608C331.468 544.557 331.407 544.516 331.34 544.488C331.272 544.46 331.2 544.445 331.127 544.445H226.47C226.396 544.445 226.324 544.46 226.257 544.488C226.189 544.516 226.128 544.557 226.076 544.608C226.024 544.66 225.983 544.721 225.955 544.789C225.927 544.856 225.913 544.929 225.913 545.002V547.81H217.563V545.002C217.563 544.929 217.548 544.856 217.52 544.789C217.492 544.721 217.451 544.66 217.4 544.608C217.348 544.557 217.286 544.516 217.219 544.488C217.151 544.46 217.079 544.445 217.006 544.445H203.645C203.572 544.445 203.5 544.46 203.432 544.488C203.365 544.516 203.303 544.557 203.252 544.608C203.2 544.66 203.159 544.721 203.131 544.789C203.103 544.856 203.089 544.929 203.089 545.002V547.81H194.738V545.002C194.738 544.929 194.724 544.856 194.696 544.789C194.668 544.721 194.627 544.66 194.575 544.608C194.524 544.557 194.462 544.516 194.395 544.488C194.327 544.46 194.255 544.445 194.182 544.445H180.821C180.748 544.445 180.676 544.46 180.608 544.488C180.541 544.516 180.479 544.557 180.428 544.608C180.376 544.66 180.335 544.721 180.307 544.789C180.279 544.856 180.265 544.929 180.265 545.002V547.81H171.914V545.002C171.914 544.929 171.9 544.856 171.872 544.789C171.844 544.721 171.803 544.66 171.751 544.608C171.7 544.557 171.638 544.516 171.571 544.488C171.503 544.46 171.431 544.445 171.358 544.445H157.997C157.924 544.445 157.852 544.46 157.784 544.488C157.717 544.516 157.655 544.557 157.603 544.608C157.552 544.66 157.511 544.721 157.483 544.789C157.455 544.856 157.44 544.929 157.44 545.002V547.81H149.09V545.002C149.09 544.929 149.076 544.856 149.048 544.789C149.02 544.721 148.979 544.66 148.927 544.608C148.875 544.557 148.814 544.516 148.747 544.488C148.679 544.46 148.607 544.445 148.533 544.445H135.173C135.1 544.445 135.027 544.46 134.96 544.488C134.892 544.516 134.831 544.557 134.779 544.608C134.728 544.66 134.687 544.721 134.659 544.789C134.631 544.856 134.616 544.929 134.616 545.002V547.81H126.266V545.002C126.266 544.929 126.252 544.856 126.224 544.789C126.196 544.721 126.155 544.66 126.103 544.608C126.051 544.557 125.99 544.516 125.922 544.488C125.855 544.46 125.782 544.445 125.709 544.445H112.349C112.276 544.445 112.203 544.46 112.136 544.488C112.068 544.516 112.007 544.557 111.955 544.608C111.904 544.66 111.863 544.721 111.835 544.789C111.807 544.856 111.792 544.929 111.792 545.002V547.81H103.442V545.002C103.442 544.929 103.427 544.856 103.4 544.789C103.372 544.721 103.331 544.66 103.279 544.608C103.227 544.557 103.166 544.516 103.098 544.488C103.031 544.46 102.958 544.445 102.885 544.445H89.5247C89.4516 544.445 89.3792 544.46 89.3117 544.488C89.2441 544.516 89.1828 544.557 89.1311 544.608C89.0794 544.66 89.0384 544.721 89.0104 544.789C88.9824 544.856 88.968 544.929 88.968 545.002V547.81H63.3605C59.8171 547.81 56.4188 549.217 53.9132 551.723C51.4076 554.228 50 557.627 50 561.17V567.211C50 570.755 51.4076 574.153 53.9132 576.659C56.4188 579.164 59.8171 580.572 63.3605 580.572H507.596C511.139 580.572 514.538 579.164 517.043 576.659C519.549 574.153 520.957 570.755 520.957 567.211V561.17C520.957 557.627 519.549 554.228 517.043 551.723C514.538 549.217 511.139 547.81 507.596 547.81Z" fill="#3F3D56"/>
<path d="M153.847 520.641C144.28 520.641 134.929 517.804 126.975 512.49C119.021 507.175 112.821 499.621 109.16 490.783C105.499 481.944 104.541 472.219 106.408 462.836C108.274 453.454 112.881 444.835 119.645 438.071C126.41 431.307 135.028 426.7 144.411 424.834C153.793 422.967 163.518 423.925 172.357 427.586C181.195 431.247 188.749 437.446 194.064 445.401C199.379 453.355 202.215 462.706 202.215 472.273C202.201 485.096 197.1 497.391 188.032 506.458C178.965 515.526 166.67 520.627 153.847 520.641ZM153.847 425.177C144.532 425.177 135.427 427.939 127.682 433.114C119.937 438.289 113.901 445.644 110.336 454.25C106.772 462.856 105.839 472.325 107.656 481.461C109.473 490.596 113.959 498.988 120.545 505.574C127.132 512.161 135.523 516.646 144.659 518.463C153.795 520.281 163.264 519.348 171.87 515.783C180.475 512.219 187.83 506.182 193.005 498.438C198.18 490.693 200.942 481.587 200.942 472.273C200.928 459.786 195.962 447.816 187.133 438.987C178.304 430.158 166.333 425.191 153.847 425.177Z" fill="#3F3D56"/>
<path d="M585.345 315.712H423.056V316.984H585.345V315.712Z" fill="#3F3D56"/>
<path d="M775 651.745H308.499V653.018H775V651.745Z" fill="#3F3D56"/>
<path d="M334.91 710.297H172.622V711.569H334.91V710.297Z" fill="#3F3D56"/>
<path d="M367.577 645.035H349.757V662.855H367.577V645.035Z" fill="#6C63FF"/>
<path d="M378.397 652.672H356.758V631.034H378.397V652.672ZM357.699 651.732H377.456V631.975H357.699V651.732Z" fill="#3F3D56"/>
<path d="M574.417 309.001H556.597V326.821H574.417V309.001Z" fill="#6C63FF"/>
<path d="M585.236 316.639H563.597V295H585.236V316.639ZM564.538 315.698H584.295V295.941H564.538V315.698Z" fill="#3F3D56"/>
<path d="M753.889 645.035H736.069V662.855H753.889V645.035Z" fill="#6C63FF"/>
<path d="M764.708 652.672H743.07V631.034H764.708V652.672ZM744.011 651.732H763.768V631.975H744.011V651.732Z" fill="#3F3D56"/>
<path d="M722.813 442.625H721.299V401.154C721.299 398.002 720.679 394.881 719.472 391.969C718.266 389.057 716.498 386.411 714.269 384.182C712.04 381.953 709.395 380.185 706.482 378.979C703.57 377.773 700.449 377.152 697.297 377.152H609.436C606.284 377.152 603.163 377.773 600.251 378.979C597.339 380.185 594.693 381.953 592.464 384.182C590.235 386.411 588.467 389.057 587.261 391.969C586.055 394.881 585.434 398.002 585.434 401.154V628.665C585.434 631.817 586.055 634.938 587.261 637.85C588.467 640.762 590.235 643.408 592.464 645.637C594.693 647.866 597.339 649.634 600.251 650.84C603.163 652.046 606.284 652.667 609.436 652.667H697.297C700.449 652.667 703.57 652.046 706.482 650.84C709.395 649.634 712.041 647.866 714.269 645.637C716.498 643.408 718.266 640.762 719.472 637.85C720.679 634.938 721.299 631.817 721.299 628.665V472.144H722.813V442.625Z" fill="#3F3D56"/>
<path d="M716.188 402.565V629.744C716.189 634.498 714.301 639.058 710.94 642.42C707.579 645.782 703.02 647.671 698.266 647.672H609.981C605.227 647.671 600.668 645.782 597.307 642.42C593.946 639.058 592.058 634.498 592.059 629.744V402.565C592.06 397.812 593.948 393.253 597.309 389.893C600.67 386.532 605.228 384.643 609.981 384.643H620.692C620.165 385.936 619.964 387.339 620.107 388.728C620.249 390.117 620.731 391.449 621.51 392.608C622.289 393.767 623.341 394.716 624.574 395.373C625.806 396.029 627.181 396.372 628.577 396.372H678.912C680.309 396.372 681.684 396.029 682.916 395.373C684.148 394.716 685.2 393.767 685.979 392.608C686.758 391.449 687.241 390.117 687.383 388.728C687.526 387.339 687.325 385.936 686.798 384.643H698.266C703.019 384.643 707.577 386.532 710.938 389.893C714.299 393.253 716.188 397.812 716.188 402.565Z" fill="#6C63FF"/>
<path d="M667.273 534.436H640.974V542.229H667.273V534.436Z" fill="#3F3D56"/>
<path d="M699.068 473.757H609.179V477.097H699.068V473.757Z" fill="#3F3D56"/>
<path d="M699.068 484.334H609.179V487.674H699.068V484.334Z" fill="#3F3D56"/>
<path d="M699.068 494.911H609.179V498.251H699.068V494.911Z" fill="#3F3D56"/>
<path d="M699.068 505.488H609.179V508.828H699.068V505.488Z" fill="#3F3D56"/>
<path d="M699.068 516.065H609.179V519.405H699.068V516.065Z" fill="#3F3D56"/>
<path d="M657.264 429.4H641.676V444.987H657.264V429.4Z" fill="#F2F2F2"/>
<path d="M647.643 433.298V452.225H666.571V433.298H647.643ZM665.75 451.404H648.464V434.119H665.75V451.404Z" fill="#3F3D56"/>
<path opacity="0.1" d="M716.188 605.483V629.744C716.189 634.498 714.301 639.058 710.94 642.42C707.579 645.782 703.02 647.671 698.266 647.672H609.981C605.227 647.671 600.668 645.782 597.307 642.42C593.946 639.058 592.058 634.498 592.059 629.744V507.416L666.438 566.178L667.711 567.183L681.547 578.111L682.839 579.135L716.188 605.483Z" fill="black"/>
<path d="M646.486 640.31C661.906 640.31 674.405 627.81 674.405 612.391C674.405 596.972 661.906 584.472 646.486 584.472C631.067 584.472 618.568 596.972 618.568 612.391C618.568 627.81 631.067 640.31 646.486 640.31Z" fill="#F2F2F2"/>
<path d="M253.766 711.569C242.815 711.569 232.11 708.322 223.004 702.238C213.899 696.154 206.802 687.506 202.611 677.389C198.421 667.272 197.324 656.139 199.461 645.398C201.597 634.658 206.87 624.792 214.614 617.048C222.358 609.305 232.223 604.031 242.964 601.895C253.705 599.758 264.837 600.855 274.955 605.046C285.072 609.236 293.72 616.333 299.804 625.439C305.888 634.544 309.135 645.249 309.135 656.2C309.119 670.88 303.28 684.954 292.9 695.334C282.519 705.714 268.446 711.553 253.766 711.569ZM253.766 602.104C243.067 602.104 232.608 605.276 223.712 611.221C214.816 617.165 207.882 625.614 203.787 635.498C199.693 645.383 198.622 656.26 200.709 666.754C202.796 677.248 207.949 686.887 215.514 694.452C223.08 702.018 232.719 707.17 243.212 709.257C253.706 711.344 264.583 710.273 274.468 706.179C284.353 702.084 292.801 695.151 298.745 686.255C304.69 677.358 307.862 666.899 307.862 656.2C307.846 641.858 302.141 628.108 292 617.966C281.858 607.825 268.108 602.12 253.766 602.104Z" fill="#3F3D56"/>
<path d="M654.715 633.925C647.792 633.925 641.025 631.872 635.269 628.026C629.512 624.18 625.026 618.713 622.376 612.317C619.727 605.921 619.034 598.883 620.385 592.093C621.735 585.303 625.069 579.066 629.964 574.171C634.86 569.275 641.097 565.941 647.887 564.591C654.677 563.24 661.715 563.933 668.111 566.583C674.507 569.232 679.974 573.719 683.82 579.475C687.666 585.231 689.719 591.999 689.719 598.922C689.708 608.202 686.017 617.099 679.455 623.661C672.893 630.224 663.996 633.915 654.715 633.925ZM654.715 565.191C648.044 565.191 641.523 567.169 635.976 570.876C630.429 574.582 626.105 579.85 623.552 586.014C620.999 592.177 620.331 598.959 621.633 605.502C622.934 612.045 626.147 618.056 630.864 622.773C635.582 627.49 641.592 630.703 648.135 632.004C654.678 633.306 661.46 632.638 667.624 630.085C673.787 627.532 679.055 623.208 682.761 617.662C686.468 612.115 688.446 605.593 688.446 598.922C688.436 589.979 684.879 581.405 678.556 575.082C672.232 568.758 663.658 565.201 654.715 565.191Z" fill="#3F3D56"/>
</g>
<defs>
<filter id="filter0_d_343_3" x="0" y="0" width="845" height="890" filterUnits="userSpaceOnUse" color-interpolation-filters="sRGB">
<feFlood flood-opacity="0" result="BackgroundImageFix"/>
<feColorMatrix in="SourceAlpha" type="matrix" values="0 0 0 0 0 0 0 0 0 0 0 0 0 0 0 0 0 0 127 0" result="hardAlpha"/>
<feOffset dy="4"/>
<feGaussianBlur stdDeviation="2"/>
<feComposite in2="hardAlpha" operator="out"/>
<feColorMatrix type="matrix" values="0 0 0 0 0 0 0 0 0 0 0 0 0 0 0 0 0 0 0.25 0"/>
<feBlend mode="normal" in2="BackgroundImageFix" result="effect1_dropShadow_343_3"/>
<feBlend mode="normal" in="SourceGraphic" in2="effect1_dropShadow_343_3" result="shape"/>
</filter>
<clipPath id="clip0_343_3">
<rect width="725" height="416.569" fill="white" transform="translate(50 295)"/>
</clipPath>
</defs>
</svg>
