<svg width="619" height="499" viewBox="0 0 619 499" fill="none" xmlns="http://www.w3.org/2000/svg">
<g filter="url(#filter0_d_343_4)">
<ellipse cx="262" cy="203" rx="214" ry="203" fill="#35E47D"/>
</g>
<g clip-path="url(#clip0_343_4)">
<path d="M373.216 454.698L350.905 460.683L373.377 446.864C372.894 424.834 365.204 401.99 365.204 401.99C365.204 401.99 317.178 415.904 304.574 439.996C291.969 464.089 301.891 479.995 319.559 489.238C337.227 498.481 355.951 497.562 368.555 473.469C371.361 468.107 372.749 461.589 373.216 454.698Z" fill="#F2F2F2"/>
<path d="M346.64 459.408L346.018 460.595C338.726 474.362 330.763 483.915 322.227 489.109C322.104 489.187 321.978 489.256 321.855 489.333L321.507 488.754L321.179 488.193C330.531 482.655 338.38 472.017 344.744 460.011C344.953 459.626 345.165 459.235 345.365 458.838C348.014 453.732 350.4 448.413 352.521 443.142C352.688 442.736 352.853 442.32 353.018 441.905C355.782 434.934 358.086 428.097 359.932 422.077C360.065 421.652 360.191 421.224 360.315 420.802C363.399 410.599 365.109 402.935 365.476 401.232C365.524 401.025 365.547 400.91 365.554 400.883L366.195 401.017L366.204 401.014L366.852 401.15C366.845 401.177 366.77 401.564 366.608 402.274C366.019 404.931 364.347 412.106 361.591 421.282C361.465 421.695 361.338 422.123 361.206 422.548C359.712 427.435 357.927 432.837 355.843 438.396C355.322 439.793 354.792 441.163 354.254 442.506C354.095 442.925 353.93 443.34 353.762 443.747C351.47 449.444 349.096 454.665 346.64 459.408Z" fill="white"/>
<path d="M361.591 421.282C361.17 421.129 360.742 420.973 360.315 420.802C359.154 420.339 358.017 419.817 356.91 419.237C352.187 416.775 348.077 413.283 344.882 409.021C344.472 409.204 344.062 409.386 343.643 409.571C346.979 414.102 351.307 417.81 356.295 420.413C357.477 421.031 358.691 421.587 359.932 422.077C360.354 422.245 360.781 422.401 361.206 422.548C364.701 423.783 368.364 424.48 372.068 424.614C371.985 424.159 371.904 423.712 371.826 423.275C368.335 423.118 364.886 422.447 361.591 421.282Z" fill="white"/>
<path d="M354.254 442.507C353.836 442.318 353.424 442.117 353.018 441.905C352.892 441.846 352.762 441.779 352.639 441.714C347.525 439.039 343.134 435.166 339.84 430.427C336.545 425.688 334.446 420.222 333.721 414.497C333.304 414.72 332.887 414.944 332.474 415.177C333.297 421.017 335.499 426.577 338.899 431.396C342.299 436.216 346.798 440.156 352.024 442.89C352.188 442.976 352.353 443.062 352.521 443.142C352.935 443.352 353.347 443.552 353.762 443.747C360.207 446.709 367.37 447.753 374.392 446.752C374.386 446.307 374.379 445.862 374.366 445.413C367.522 446.422 360.532 445.412 354.254 442.507Z" fill="white"/>
<path d="M346.64 459.408C346.21 459.228 345.786 459.036 345.365 458.838C344.915 458.625 344.468 458.406 344.027 458.175C337.159 454.572 331.643 448.842 328.305 441.841C324.967 434.841 323.986 426.948 325.509 419.343C324.995 419.681 324.485 420.013 323.983 420.357C322.712 428.074 323.905 435.995 327.393 442.995C330.881 449.995 336.486 455.718 343.412 459.351C343.853 459.582 344.297 459.807 344.744 460.011C345.168 460.217 345.592 460.409 346.018 460.595C354.671 464.294 364.406 464.566 373.252 461.356C373.356 460.857 373.439 460.354 373.526 459.845C364.848 463.201 355.204 463.044 346.64 459.408Z" fill="white"/>
<path d="M80.2293 456.788L102.54 462.773L80.0679 448.954C80.5513 426.924 88.2406 404.08 88.2406 404.08C88.2406 404.08 136.267 417.993 148.871 442.086C161.476 466.179 151.554 482.084 133.886 491.328C116.218 500.571 97.4942 499.652 84.8896 475.559C82.0841 470.197 80.6959 463.679 80.2293 456.788Z" fill="#F2F2F2"/>
<path d="M106.805 461.497L107.427 462.685C114.719 476.452 122.682 486.004 131.218 491.199C131.341 491.276 131.467 491.345 131.59 491.423L131.938 490.844L132.266 490.283C122.914 484.745 115.065 474.107 108.701 462.101C108.492 461.716 108.28 461.325 108.08 460.928C105.431 455.821 103.045 450.502 100.924 445.232C100.757 444.826 100.592 444.41 100.427 443.995C97.6635 437.024 95.3595 430.187 93.5128 424.166C93.3804 423.741 93.2538 423.313 93.1303 422.891C90.0464 412.688 88.3357 405.024 87.9691 403.322C87.9208 403.115 87.8979 403 87.8915 402.973L87.2499 403.106L87.241 403.104L86.5935 403.24C86.5999 403.267 86.6753 403.654 86.8368 404.363C87.4257 407.021 89.0977 414.196 91.8541 423.372C91.9804 423.785 92.107 424.213 92.2394 424.638C93.733 429.525 95.5178 434.926 97.6024 440.485C98.1237 441.882 98.6534 443.253 99.1914 444.596C99.3505 445.015 99.5154 445.43 99.6831 445.837C101.975 451.534 104.349 456.754 106.805 461.497Z" fill="white"/>
<path d="M81.619 425.364C81.5409 425.802 81.4601 426.249 81.3765 426.704C85.0811 426.569 88.7437 425.873 92.2392 424.638C92.6638 424.491 93.0912 424.334 93.5126 424.166C94.7536 423.676 95.9678 423.121 97.1502 422.503C102.138 419.9 106.465 416.192 109.801 411.661C109.383 411.476 108.973 411.293 108.563 411.111C105.368 415.373 101.258 418.864 96.535 421.327C95.4275 421.906 94.291 422.428 93.13 422.891C92.7029 423.062 92.2754 423.219 91.8538 423.372C88.5589 424.536 85.1101 425.208 81.619 425.364Z" fill="white"/>
<path d="M79.0786 447.503C79.0661 447.951 79.0594 448.397 79.0527 448.842C86.0754 449.842 93.2376 448.799 99.6829 445.837C100.098 445.642 100.51 445.442 100.924 445.232C101.092 445.152 101.257 445.066 101.421 444.98C106.647 442.245 111.146 438.306 114.546 433.486C117.946 428.667 120.148 423.107 120.971 417.267C120.558 417.034 120.141 416.81 119.724 416.586C118.999 422.312 116.9 427.778 113.605 432.517C110.311 437.256 105.92 441.128 100.806 443.804C100.683 443.868 100.553 443.936 100.427 443.995C100.021 444.207 99.6092 444.408 99.1912 444.596C92.9127 447.502 85.9228 448.512 79.0786 447.503Z" fill="white"/>
<path d="M79.9194 461.935C80.0059 462.443 80.0894 462.946 80.1935 463.446C89.0392 466.655 98.774 466.383 107.427 462.685C107.854 462.499 108.277 462.307 108.701 462.101C109.148 461.896 109.592 461.672 110.033 461.441C116.959 457.808 122.564 452.085 126.052 445.085C129.54 438.085 130.733 430.164 129.462 422.447C128.96 422.103 128.45 421.771 127.936 421.433C129.459 429.038 128.478 436.931 125.14 443.931C121.802 450.931 116.286 456.662 109.418 460.265C108.977 460.496 108.53 460.715 108.08 460.928C107.659 461.125 107.235 461.317 106.805 461.497C98.2412 465.134 88.5973 465.29 79.9194 461.935Z" fill="white"/>
<path d="M184.83 473.658L198.112 477.221L184.734 468.994C185.022 455.879 189.599 442.28 189.599 442.28C189.599 442.28 218.191 450.563 225.694 464.906C233.198 479.249 227.292 488.718 216.773 494.22C206.255 499.723 195.108 499.176 187.604 484.833C185.934 481.641 185.108 477.761 184.83 473.658Z" fill="#F2F2F2"/>
<path d="M200.651 476.462L201.021 477.169C205.363 485.365 210.103 491.052 215.185 494.144C215.258 494.19 215.333 494.231 215.406 494.278L215.614 493.933L215.809 493.599C210.241 490.302 205.569 483.969 201.78 476.821C201.656 476.592 201.529 476.359 201.41 476.123C199.833 473.083 198.413 469.917 197.15 466.779C197.05 466.537 196.952 466.29 196.854 466.042C195.209 461.892 193.837 457.822 192.738 454.238C192.659 453.985 192.584 453.73 192.51 453.479C190.674 447.405 189.656 442.842 189.438 441.829C189.409 441.705 189.395 441.637 189.391 441.621L189.01 441.7L189.004 441.699L188.619 441.78C188.623 441.796 188.667 442.026 188.764 442.449C189.114 444.031 190.11 448.302 191.751 453.765C191.826 454.011 191.901 454.266 191.98 454.519C192.869 457.428 193.932 460.644 195.173 463.953C195.483 464.785 195.798 465.601 196.119 466.4C196.213 466.649 196.311 466.897 196.411 467.139C197.776 470.531 199.189 473.638 200.651 476.462Z" fill="white"/>
<path d="M185.658 454.951C185.611 455.211 185.563 455.477 185.513 455.748C187.719 455.668 189.899 455.253 191.98 454.518C192.233 454.431 192.487 454.338 192.738 454.238C193.477 453.946 194.2 453.615 194.904 453.247C197.873 451.698 200.449 449.49 202.435 446.793C202.186 446.682 201.942 446.574 201.698 446.465C199.796 449.003 197.349 451.081 194.537 452.547C193.878 452.892 193.202 453.203 192.51 453.478C192.256 453.58 192.002 453.673 191.751 453.765C189.789 454.458 187.736 454.857 185.658 454.951Z" fill="white"/>
<path d="M184.145 468.13C184.138 468.397 184.134 468.662 184.13 468.927C188.31 469.523 192.574 468.902 196.411 467.138C196.658 467.022 196.903 466.903 197.15 466.778C197.25 466.73 197.348 466.679 197.446 466.628C200.557 465 203.236 462.655 205.26 459.786C207.284 456.917 208.595 453.606 209.085 450.13C208.839 449.991 208.59 449.858 208.342 449.725C207.911 453.133 206.661 456.387 204.7 459.208C202.739 462.03 200.124 464.335 197.08 465.928C197.006 465.966 196.929 466.007 196.854 466.042C196.613 466.168 196.367 466.287 196.119 466.4C192.381 468.129 188.22 468.731 184.145 468.13Z" fill="white"/>
<path d="M184.646 476.722C184.697 477.025 184.747 477.325 184.809 477.622C190.075 479.533 195.87 479.371 201.021 477.169C201.276 477.058 201.528 476.944 201.78 476.821C202.046 476.7 202.311 476.566 202.573 476.428C206.696 474.266 210.033 470.859 212.11 466.691C214.186 462.524 214.896 457.808 214.14 453.214C213.841 453.009 213.537 452.812 213.231 452.611C214.138 457.138 213.554 461.837 211.567 466.004C209.579 470.172 206.295 473.583 202.207 475.728C201.944 475.866 201.678 475.996 201.41 476.123C201.16 476.24 200.907 476.355 200.652 476.462C195.553 478.627 189.812 478.72 184.646 476.722Z" fill="white"/>
<path d="M450.127 353.076L450.07 353.071C439.506 351.326 427.77 351.327 414.193 353.073H414.187C413.849 353.077 413.513 353.014 413.198 352.887C412.884 352.761 412.598 352.573 412.356 352.336C412.115 352.098 411.923 351.815 411.791 351.503C411.66 351.191 411.591 350.856 411.59 350.517V338.221C411.591 337.542 411.86 336.892 412.34 336.412C412.82 335.933 413.47 335.663 414.148 335.662C426.105 334.103 438.213 334.104 450.17 335.665H450.174C450.845 335.675 451.485 335.949 451.955 336.427C452.425 336.906 452.687 337.55 452.686 338.221V350.517C452.685 351.195 452.415 351.846 451.935 352.325C451.456 352.805 450.805 353.075 450.127 353.076Z" fill="white"/>
<path d="M450.127 353.076L450.07 353.071C439.506 351.326 427.77 351.327 414.193 353.073H414.187C413.849 353.077 413.513 353.014 413.198 352.887C412.884 352.761 412.598 352.573 412.356 352.336C412.115 352.098 411.923 351.815 411.791 351.503C411.66 351.191 411.591 350.856 411.59 350.517V338.221C411.591 337.542 411.86 336.892 412.34 336.412C412.82 335.933 413.47 335.663 414.148 335.662C426.105 334.103 438.213 334.104 450.17 335.665H450.174C450.845 335.675 451.485 335.949 451.955 336.427C452.425 336.906 452.687 337.55 452.686 338.221V350.517C452.685 351.195 452.415 351.846 451.935 352.325C451.456 352.805 450.805 353.075 450.127 353.076ZM431.681 335.192C425.833 335.181 419.991 335.57 414.196 336.355C413.948 336.351 413.701 336.397 413.471 336.488C413.24 336.58 413.03 336.717 412.853 336.89C412.675 337.064 412.534 337.27 412.436 337.499C412.339 337.727 412.288 337.973 412.286 338.221V350.517C412.287 351.011 412.483 351.484 412.832 351.833C413.181 352.182 413.655 352.378 414.148 352.379C427.738 350.629 439.53 350.628 450.154 352.379C450.643 352.371 451.109 352.171 451.453 351.823C451.796 351.475 451.988 351.006 451.989 350.517V338.221C451.988 337.727 451.792 337.254 451.443 336.905C451.094 336.556 450.621 336.359 450.127 336.359C444.008 335.591 437.848 335.201 431.681 335.192Z" fill="#6C63FF"/>
<path d="M432.138 348.658C434.83 348.658 437.013 346.475 437.013 343.782C437.013 341.089 434.83 338.906 432.138 338.906C429.445 338.906 427.262 341.089 427.262 343.782C427.262 346.475 429.445 348.658 432.138 348.658Z" fill="#6C63FF"/>
<path d="M419.6 341.235H415.421C415.144 341.234 414.878 341.124 414.682 340.928C414.486 340.732 414.376 340.467 414.376 340.19V338.797C414.376 338.52 414.486 338.254 414.682 338.058C414.878 337.862 415.144 337.752 415.421 337.752H419.6C419.877 337.752 420.143 337.862 420.338 338.058C420.534 338.254 420.644 338.52 420.645 338.797V340.19C420.644 340.467 420.534 340.732 420.338 340.928C420.143 341.124 419.877 341.234 419.6 341.235Z" fill="#6C63FF"/>
<path d="M448.855 350.986H444.675C444.398 350.986 444.133 350.876 443.937 350.68C443.741 350.484 443.631 350.218 443.63 349.941V348.548C443.631 348.271 443.741 348.006 443.937 347.81C444.133 347.614 444.398 347.504 444.675 347.503H448.855C449.132 347.504 449.397 347.614 449.593 347.81C449.789 348.006 449.899 348.271 449.899 348.548V349.941C449.899 350.218 449.789 350.484 449.593 350.68C449.397 350.876 449.132 350.986 448.855 350.986Z" fill="#6C63FF"/>
<path d="M444.18 347.99L444.13 347.964C435.076 342.248 424.264 337.685 411.076 334.013L411.071 334.011C410.757 333.883 410.472 333.694 410.232 333.456C409.992 333.217 409.801 332.933 409.671 332.62C409.541 332.307 409.474 331.972 409.474 331.633C409.474 331.294 409.542 330.959 409.672 330.646L414.454 319.318C414.718 318.693 415.22 318.199 415.848 317.944C416.477 317.688 417.181 317.693 417.806 317.956C429.428 321.169 440.583 325.879 450.991 331.967L450.995 331.968C451.609 332.238 452.092 332.74 452.339 333.363C452.586 333.987 452.577 334.683 452.314 335.3L447.533 346.628C447.268 347.253 446.767 347.747 446.138 348.002C445.51 348.258 444.806 348.253 444.18 347.99Z" fill="white"/>
<path d="M444.18 347.99L444.13 347.964C435.076 342.248 424.264 337.685 411.076 334.013L411.071 334.011C410.757 333.883 410.472 333.694 410.232 333.456C409.992 333.217 409.801 332.933 409.671 332.62C409.541 332.307 409.474 331.972 409.474 331.633C409.474 331.294 409.542 330.959 409.672 330.646L414.454 319.318C414.718 318.693 415.22 318.199 415.848 317.944C416.477 317.688 417.181 317.693 417.806 317.956C429.428 321.169 440.583 325.879 450.991 331.967L450.995 331.968C451.609 332.238 452.092 332.74 452.339 333.363C452.586 333.987 452.577 334.683 452.314 335.3L447.533 346.628C447.268 347.253 446.767 347.747 446.138 348.002C445.51 348.258 444.806 348.253 444.18 347.99ZM434.141 324.341C428.758 322.057 423.224 320.143 417.58 318.613C417.353 318.513 417.108 318.459 416.86 318.453C416.612 318.448 416.365 318.492 416.134 318.583C415.903 318.674 415.693 318.81 415.514 318.982C415.336 319.155 415.194 319.361 415.095 319.589L410.314 330.917C410.122 331.372 410.119 331.885 410.305 332.342C410.491 332.799 410.85 333.164 411.305 333.357C424.505 337.029 435.369 341.615 444.477 347.359C444.93 347.542 445.437 347.539 445.889 347.352C446.34 347.165 446.7 346.807 446.891 346.357L451.673 335.029C451.864 334.574 451.867 334.061 451.682 333.604C451.496 333.147 451.136 332.782 450.681 332.589C445.343 329.503 439.819 326.748 434.141 324.341Z" fill="#6C63FF"/>
<path d="M431.222 337.308C433.914 337.308 436.097 335.125 436.097 332.432C436.097 329.739 433.914 327.556 431.222 327.556C428.529 327.556 426.346 329.739 426.346 332.432C426.346 335.125 428.529 337.308 431.222 337.308Z" fill="#6C63FF"/>
<path d="M420.661 325.21L416.811 323.585C416.556 323.477 416.354 323.272 416.25 323.015C416.146 322.758 416.148 322.471 416.255 322.216L416.797 320.932C416.905 320.677 417.11 320.475 417.366 320.371C417.623 320.267 417.91 320.269 418.166 320.376L422.016 322.001C422.271 322.109 422.473 322.314 422.577 322.571C422.681 322.827 422.68 323.115 422.572 323.37L422.03 324.654C421.922 324.909 421.718 325.11 421.461 325.215C421.204 325.319 420.917 325.317 420.661 325.21Z" fill="#6C63FF"/>
<path d="M443.821 345.57L439.971 343.945C439.716 343.837 439.514 343.632 439.409 343.376C439.305 343.119 439.307 342.832 439.414 342.576L439.956 341.293C440.064 341.038 440.269 340.836 440.526 340.732C440.782 340.627 441.07 340.629 441.325 340.737L445.175 342.362C445.43 342.47 445.632 342.675 445.736 342.931C445.841 343.188 445.839 343.475 445.732 343.731L445.19 345.014C445.082 345.269 444.877 345.471 444.62 345.575C444.364 345.68 444.076 345.678 443.821 345.57Z" fill="#6C63FF"/>
<path d="M453.776 341.258C454.653 340.73 455.404 340.016 455.975 339.167C456.547 338.317 456.925 337.353 457.084 336.341C457.242 335.329 457.177 334.295 456.892 333.312C456.608 332.328 456.111 331.419 455.437 330.648L467.772 309.028L454.864 309.862L445.13 330.264C443.91 331.482 443.179 333.106 443.076 334.826C442.972 336.547 443.504 338.246 444.57 339.601C445.635 340.957 447.161 341.874 448.858 342.179C450.554 342.485 452.304 342.157 453.776 341.258Z" fill="#FFB6B6"/>
<path d="M548.728 488.641H540.189L536.127 455.703L548.73 455.703L548.728 488.641Z" fill="#FFB6B6"/>
<path d="M550.906 496.919L523.371 496.918V496.569C523.372 493.727 524.501 491.001 526.511 488.991C528.521 486.982 531.246 485.852 534.089 485.852H534.089L550.907 485.853L550.906 496.919Z" fill="#2F2E41"/>
<path d="M490.219 488.641H481.68L477.618 455.703L490.221 455.703L490.219 488.641Z" fill="#FFB6B6"/>
<path d="M492.397 496.919L464.863 496.918V496.569C464.863 493.727 465.992 491.001 468.002 488.991C470.012 486.982 472.737 485.852 475.58 485.852H475.581L492.398 485.853L492.397 496.919Z" fill="#2F2E41"/>
<path d="M468.261 309.958C468.261 309.958 465.912 343.406 470.538 360.252C475.164 377.097 475.99 478.97 475.99 478.97H491.496L504.936 340.3L535.919 479.459L550.689 478.443L542.589 314.463L468.261 309.958Z" fill="#2F2E41"/>
<path d="M536.181 197.204L524.327 188.553L504.464 192.879L499.087 205.655L489.822 210.248C486.776 211.759 484.142 213.986 482.146 216.739C480.151 219.493 478.854 222.689 478.366 226.054L465.13 317.457L542.589 314.463L551.966 206.818C552.064 205.694 551.936 204.561 551.588 203.487C551.241 202.413 550.681 201.42 549.943 200.566C549.205 199.713 548.303 199.015 547.29 198.516C546.278 198.017 545.176 197.727 544.049 197.661L536.181 197.204Z" fill="#E4E4E4"/>
<path d="M484.921 217.388L477.767 227.032L446.606 322.071L461.213 327.919L484.6 283.633L484.921 217.388Z" fill="#E4E4E4"/>
<path d="M510.534 182.964C523.627 182.964 534.242 172.35 534.242 159.256C534.242 146.163 523.627 135.548 510.534 135.548C497.44 135.548 486.825 146.163 486.825 159.256C486.825 172.35 497.44 182.964 510.534 182.964Z" fill="#2F2E41"/>
<path d="M510.854 184.038C520.409 184.038 528.154 176.292 528.154 166.737C528.154 157.182 520.409 149.436 510.854 149.436C501.299 149.436 493.553 157.182 493.553 166.737C493.553 176.292 501.299 184.038 510.854 184.038Z" fill="#FFB9B9"/>
<path d="M523.99 164.494C512.973 160.521 509.246 158.08 497.078 164.494L492.592 146.553H528.475L523.99 164.494Z" fill="#2F2E41"/>
<path d="M508.611 149.116C516.043 149.116 522.067 143.091 522.067 135.66C522.067 128.228 516.043 122.204 508.611 122.204C501.18 122.204 495.155 128.228 495.155 135.66C495.155 143.091 501.18 149.116 508.611 149.116Z" fill="#2F2E41"/>
<path d="M492.592 132.456C492.594 129 493.926 125.678 496.312 123.178C498.699 120.679 501.956 119.194 505.408 119.032C505.194 119.022 504.983 119 504.767 119C501.198 119 497.775 120.418 495.252 122.941C492.728 125.465 491.311 128.887 491.311 132.456C491.311 136.025 492.728 139.447 495.252 141.971C497.775 144.494 501.198 145.912 504.767 145.912C504.983 145.912 505.194 145.89 505.408 145.88C501.956 145.718 498.699 144.233 496.312 141.734C493.926 139.234 492.594 135.912 492.592 132.456Z" fill="#2F2E41"/>
<path opacity="0.1" d="M541.966 222.861L537.139 270.982L520.092 304.579L541.966 222.861Z" fill="black"/>
<path d="M31.6924 370.963H27.5132V374.446H31.6924V370.963Z" fill="#F0F0F0"/>
<path d="M426.997 374.446H418.762V370.963H426.997V374.446ZM410.527 374.446H402.291V370.963H410.527V374.446ZM394.055 374.446H385.82V370.963H394.055V374.446ZM377.585 374.446H369.349V370.963H377.585V374.446ZM361.113 374.446H352.878V370.963H361.113V374.446ZM344.642 374.446H336.407V370.963H344.642L344.642 374.446ZM328.171 374.446H319.936V370.963H328.171V374.446ZM311.7 374.446H303.465V370.963H311.7V374.446ZM295.229 374.446H286.994V370.963H295.229V374.446ZM278.758 374.446H270.523V370.963H278.758L278.758 374.446ZM262.287 374.446H254.052V370.963H262.287L262.287 374.446ZM245.816 374.446H237.581V370.963H245.816L245.816 374.446ZM229.345 374.446H221.11V370.963H229.345L229.345 374.446ZM212.874 374.446H204.639V370.963H212.874L212.874 374.446ZM196.403 374.446H188.168V370.963H196.403L196.403 374.446ZM179.932 374.446H171.696V370.963H179.932L179.932 374.446ZM163.461 374.446H155.225V370.963H163.461L163.461 374.446ZM146.99 374.446H138.754V370.963H146.99L146.99 374.446ZM130.519 374.446H122.283V370.963H130.519L130.519 374.446ZM114.048 374.446H105.812V370.963H114.048L114.048 374.446ZM97.5766 374.446H89.3415V370.963H97.5768L97.5766 374.446ZM81.1056 374.446H72.8702V370.963H81.1059L81.1056 374.446ZM64.6346 374.446H56.3992V370.963H64.6349L64.6346 374.446ZM48.1636 374.446H39.9282V370.963H48.1639L48.1636 374.446Z" fill="#F0F0F0"/>
<path d="M31.6924 282.503H27.5132V285.985H31.6924V282.503Z" fill="#F0F0F0"/>
<path d="M426.997 285.985H418.762V282.503H426.997V285.985ZM410.527 285.985H402.291V282.503H410.527V285.985ZM394.055 285.985H385.82V282.503H394.055V285.985ZM377.585 285.985H369.349V282.503H377.585V285.985ZM361.113 285.985H352.878V282.503H361.113V285.985ZM344.642 285.985H336.407V282.503H344.642L344.642 285.985ZM328.171 285.985H319.936V282.503H328.171V285.985ZM311.7 285.985H303.465V282.503H311.7V285.985ZM295.229 285.985H286.994V282.503H295.229V285.985ZM278.758 285.985H270.523V282.503H278.758L278.758 285.985ZM262.287 285.985H254.052V282.503H262.287L262.287 285.985ZM245.816 285.985H237.581V282.503H245.816L245.816 285.985ZM229.345 285.985H221.11V282.503H229.345L229.345 285.985ZM212.874 285.985H204.639V282.503H212.874L212.874 285.985ZM196.403 285.985H188.168V282.503H196.403L196.403 285.985ZM179.932 285.985H171.696V282.503H179.932L179.932 285.985ZM163.461 285.985H155.225V282.503H163.461L163.461 285.985ZM146.99 285.985H138.754V282.503H146.99L146.99 285.985ZM130.519 285.985H122.283V282.503H130.519L130.519 285.985ZM114.048 285.985H105.812V282.503H114.048L114.048 285.985ZM97.5766 285.985H89.3415V282.503H97.5768L97.5766 285.985ZM81.1056 285.985H72.8702V282.503H81.1059L81.1056 285.985ZM64.6346 285.985H56.3992V282.503H64.6349L64.6346 285.985ZM48.1636 285.985H39.9282V282.503H48.1639L48.1636 285.985Z" fill="#F0F0F0"/>
<path d="M31.6924 194.043H27.5132V197.525H31.6924V194.043Z" fill="#F0F0F0"/>
<path d="M426.997 197.525H418.762V194.043H426.997V197.525ZM410.527 197.525H402.291V194.043H410.527V197.525ZM394.055 197.525H385.82V194.043H394.055V197.525ZM377.585 197.525H369.349V194.043H377.585V197.525ZM361.113 197.525H352.878V194.043H361.113V197.525ZM344.642 197.525H336.407V194.043H344.642L344.642 197.525ZM328.171 197.525H319.936V194.043H328.171V197.525ZM311.7 197.525H303.465V194.043H311.7V197.525ZM295.229 197.525H286.994V194.043H295.229V197.525ZM278.758 197.525H270.523V194.043H278.758L278.758 197.525ZM262.287 197.525H254.052V194.043H262.287L262.287 197.525ZM245.816 197.525H237.581V194.043H245.816L245.816 197.525ZM229.345 197.525H221.11V194.043H229.345L229.345 197.525ZM212.874 197.525H204.639V194.043H212.874L212.874 197.525ZM196.403 197.525H188.168V194.043H196.403L196.403 197.525ZM179.932 197.525H171.696V194.043H179.932L179.932 197.525ZM163.461 197.525H155.225V194.043H163.461L163.461 197.525ZM146.99 197.525H138.754V194.043H146.99L146.99 197.525ZM130.519 197.525H122.283V194.043H130.519L130.519 197.525ZM114.048 197.525H105.812V194.043H114.048L114.048 197.525ZM97.5766 197.525H89.3415V194.043H97.5768L97.5766 197.525ZM81.1056 197.525H72.8702V194.043H81.1059L81.1056 197.525ZM64.6346 197.525H56.3992V194.043H64.6349L64.6346 197.525ZM48.1636 197.525H39.9282V194.043H48.1639L48.1636 197.525Z" fill="#F0F0F0"/>
<path d="M163.686 372.008H129.556V497.384H163.686V372.008Z" fill="#3F3D56"/>
<path d="M169.955 372.008H135.825V497.384H169.955V372.008Z" fill="#6C63FF"/>
<path d="M244.484 283.548H210.354V497.384H244.484V283.548Z" fill="#3F3D56"/>
<path d="M250.753 283.548H216.623V497.384H250.753V283.548Z" fill="#6C63FF"/>
<path d="M325.282 195.088H291.152V497.384H325.282V195.088Z" fill="#3F3D56"/>
<path d="M331.551 195.088H297.421V497.384H331.551V195.088Z" fill="#6C63FF"/>
<path d="M27.8614 204.143C32.4776 204.143 36.2198 200.4 36.2198 195.784C36.2198 191.168 32.4776 187.426 27.8614 187.426C23.2451 187.426 19.5029 191.168 19.5029 195.784C19.5029 200.4 23.2451 204.143 27.8614 204.143Z" fill="#F0F0F0"/>
<path d="M27.8614 292.603C32.4776 292.603 36.2198 288.861 36.2198 284.244C36.2198 279.628 32.4776 275.886 27.8614 275.886C23.2451 275.886 19.5029 279.628 19.5029 284.244C19.5029 288.861 23.2451 292.603 27.8614 292.603Z" fill="#F0F0F0"/>
<path d="M27.8614 381.063C32.4776 381.063 36.2198 377.321 36.2198 372.704C36.2198 368.088 32.4776 364.346 27.8614 364.346C23.2451 364.346 19.5029 368.088 19.5029 372.704C19.5029 377.321 23.2451 381.063 27.8614 381.063Z" fill="#F0F0F0"/>
<path d="M618.524 496.604H0V498.164H618.524V496.604Z" fill="#3F3D56"/>
<path d="M521.87 337.752L521.813 337.747C511.249 336.003 499.514 336.003 485.936 337.749H485.931C485.592 337.753 485.256 337.69 484.941 337.564C484.627 337.437 484.341 337.25 484.1 337.012C483.858 336.775 483.666 336.491 483.535 336.179C483.403 335.867 483.334 335.532 483.333 335.193V322.897C483.334 322.219 483.604 321.568 484.083 321.089C484.563 320.609 485.213 320.339 485.892 320.339C497.848 318.78 509.957 318.78 521.913 320.341H521.918C522.588 320.351 523.228 320.625 523.698 321.103C524.168 321.582 524.431 322.226 524.429 322.897V335.193C524.428 335.872 524.158 336.522 523.678 337.002C523.199 337.481 522.548 337.751 521.87 337.752Z" fill="white"/>
<path d="M521.87 337.752L521.813 337.747C511.249 336.003 499.514 336.003 485.936 337.749H485.931C485.592 337.753 485.256 337.69 484.941 337.564C484.627 337.437 484.341 337.25 484.1 337.012C483.858 336.775 483.666 336.491 483.535 336.179C483.403 335.867 483.334 335.532 483.333 335.193V322.897C483.334 322.219 483.604 321.568 484.083 321.089C484.563 320.609 485.213 320.339 485.892 320.339C497.848 318.78 509.957 318.78 521.913 320.341H521.918C522.588 320.351 523.228 320.625 523.698 321.103C524.168 321.582 524.431 322.226 524.429 322.897V335.193C524.428 335.872 524.158 336.522 523.678 337.002C523.199 337.481 522.548 337.751 521.87 337.752ZM503.424 319.868C497.576 319.858 491.734 320.246 485.939 321.032C485.691 321.028 485.444 321.073 485.214 321.165C484.983 321.257 484.773 321.393 484.596 321.567C484.418 321.74 484.277 321.947 484.18 322.175C484.082 322.404 484.031 322.649 484.03 322.897V335.193C484.03 335.687 484.226 336.16 484.576 336.509C484.925 336.858 485.398 337.055 485.892 337.055C499.481 335.305 511.273 335.305 521.897 337.055C522.386 337.047 522.853 336.848 523.196 336.5C523.539 336.151 523.732 335.682 523.732 335.193V322.897C523.732 322.403 523.535 321.93 523.186 321.581C522.837 321.232 522.364 321.036 521.87 321.035C515.751 320.268 509.591 319.878 503.424 319.868Z" fill="#6C63FF"/>
<path d="M503.881 333.334C506.574 333.334 508.757 331.151 508.757 328.458C508.757 325.766 506.574 323.583 503.881 323.583C501.188 323.583 499.005 325.766 499.005 328.458C499.005 331.151 501.188 333.334 503.881 333.334Z" fill="#6C63FF"/>
<path d="M491.343 325.911H487.164C486.887 325.911 486.621 325.801 486.425 325.605C486.23 325.409 486.119 325.143 486.119 324.866V323.473C486.119 323.196 486.23 322.931 486.425 322.735C486.621 322.539 486.887 322.429 487.164 322.428H491.343C491.62 322.429 491.886 322.539 492.082 322.735C492.277 322.931 492.388 323.196 492.388 323.473V324.866C492.388 325.143 492.277 325.409 492.082 325.605C491.886 325.801 491.62 325.911 491.343 325.911Z" fill="#6C63FF"/>
<path d="M520.598 335.662H516.419C516.142 335.662 515.876 335.552 515.68 335.356C515.484 335.16 515.374 334.895 515.374 334.618V333.225C515.374 332.948 515.484 332.682 515.68 332.486C515.876 332.29 516.142 332.18 516.419 332.18H520.598C520.875 332.18 521.14 332.29 521.336 332.486C521.532 332.682 521.642 332.948 521.643 333.225V334.618C521.642 334.895 521.532 335.16 521.336 335.356C521.14 335.552 520.875 335.662 520.598 335.662Z" fill="#6C63FF"/>
<path d="M514.039 321.634C513.968 320.613 514.121 319.588 514.488 318.632C514.855 317.676 515.428 316.812 516.165 316.102C516.902 315.391 517.786 314.85 518.755 314.518C519.723 314.186 520.753 314.071 521.771 314.179L532.385 291.665L539.115 302.71L528.005 322.397C527.708 324.095 526.8 325.626 525.45 326.699C524.101 327.772 522.405 328.313 520.683 328.218C518.962 328.124 517.335 327.402 516.11 326.189C514.886 324.975 514.149 323.354 514.039 321.634Z" fill="#FFB6B6"/>
<path d="M542.896 203.865L547.267 198.165C547.267 198.165 557.917 195.996 559.726 210.624L558.587 275.656L535.249 312.389L520.091 308.519L539.909 264.883L542.896 203.865Z" fill="#E4E4E4"/>
</g>
<defs>
<filter id="filter0_d_343_4" x="44" y="0" width="436" height="414" filterUnits="userSpaceOnUse" color-interpolation-filters="sRGB">
<feFlood flood-opacity="0" result="BackgroundImageFix"/>
<feColorMatrix in="SourceAlpha" type="matrix" values="0 0 0 0 0 0 0 0 0 0 0 0 0 0 0 0 0 0 127 0" result="hardAlpha"/>
<feOffset dy="4"/>
<feGaussianBlur stdDeviation="2"/>
<feComposite in2="hardAlpha" operator="out"/>
<feColorMatrix type="matrix" values="0 0 0 0 0 0 0 0 0 0 0 0 0 0 0 0 0 0 0.25 0"/>
<feBlend mode="normal" in2="BackgroundImageFix" result="effect1_dropShadow_343_4"/>
<feBlend mode="normal" in="SourceGraphic" in2="effect1_dropShadow_343_4" result="shape"/>
</filter>
<clipPath id="clip0_343_4">
<rect width="618.524" height="379.164" fill="white" transform="translate(0 119)"/>
</clipPath>
</defs>
</svg>
