<svg width="371" height="59" viewBox="0 0 371 59" fill="none" xmlns="http://www.w3.org/2000/svg">
<path d="M17.11 0H41.89C51.33 0 59 7.67 59 17.11V41.89C59 46.4279 57.1973 50.7799 53.9886 53.9886C50.7799 57.1973 46.4279 59 41.89 59H17.11C7.67 59 0 51.33 0 41.89V17.11C0 12.5721 1.80266 8.22015 5.0114 5.0114C8.22015 1.80266 12.5721 0 17.11 0ZM16.52 5.9C13.7034 5.9 11.0022 7.01889 9.01053 9.01053C7.01889 11.0022 5.9 13.7034 5.9 16.52V42.48C5.9 48.3505 10.6495 53.1 16.52 53.1H42.48C45.2966 53.1 47.9978 51.9811 49.9895 49.9895C51.9811 47.9978 53.1 45.2966 53.1 42.48V16.52C53.1 10.6495 48.3505 5.9 42.48 5.9H16.52ZM44.9875 10.325C45.9655 10.325 46.9034 10.7135 47.595 11.405C48.2865 12.0966 48.675 13.0345 48.675 14.0125C48.675 14.9905 48.2865 15.9284 47.595 16.62C46.9034 17.3115 45.9655 17.7 44.9875 17.7C44.0095 17.7 43.0716 17.3115 42.38 16.62C41.6885 15.9284 41.3 14.9905 41.3 14.0125C41.3 13.0345 41.6885 12.0966 42.38 11.405C43.0716 10.7135 44.0095 10.325 44.9875 10.325ZM29.5 14.75C33.4119 14.75 37.1637 16.304 39.9298 19.0702C42.696 21.8363 44.25 25.5881 44.25 29.5C44.25 33.4119 42.696 37.1637 39.9298 39.9298C37.1637 42.696 33.4119 44.25 29.5 44.25C25.5881 44.25 21.8363 42.696 19.0702 39.9298C16.304 37.1637 14.75 33.4119 14.75 29.5C14.75 25.5881 16.304 21.8363 19.0702 19.0702C21.8363 16.304 25.5881 14.75 29.5 14.75ZM29.5 20.65C27.1528 20.65 24.9018 21.5824 23.2421 23.2421C21.5824 24.9018 20.65 27.1528 20.65 29.5C20.65 31.8472 21.5824 34.0982 23.2421 35.7579C24.9018 37.4176 27.1528 38.35 29.5 38.35C31.8472 38.35 34.0982 37.4176 35.7579 35.7579C37.4176 34.0982 38.35 31.8472 38.35 29.5C38.35 27.1528 37.4176 24.9018 35.7579 23.2421C34.0982 21.5824 31.8472 20.65 29.5 20.65Z" fill="white"/>
<path d="M113.17 47.7045C110.754 47.7045 108.602 47.375 106.716 46.7159C104.83 46.0644 103.235 45.1061 101.932 43.8409C100.629 42.5833 99.6364 41.0455 98.9545 39.2273C98.2727 37.4091 97.9318 35.3409 97.9318 33.0227C97.9318 30.7348 98.2727 28.6591 98.9545 26.7955C99.6439 24.9318 100.648 23.3333 101.966 22C103.284 20.6591 104.894 19.6288 106.795 18.9091C108.705 18.1894 110.879 17.8295 113.318 17.8295C115.576 17.8295 117.591 18.1591 119.364 18.8182C121.144 19.4773 122.652 20.4167 123.886 21.6364C125.129 22.8485 126.072 24.2917 126.716 25.9659C127.367 27.6326 127.689 29.4773 127.682 31.5C127.689 32.8939 127.568 34.1742 127.318 35.3409C127.068 36.5076 126.674 37.5265 126.136 38.3977C125.606 39.2614 124.909 39.947 124.045 40.4545C123.182 40.9545 122.136 41.2386 120.909 41.3068C120.03 41.375 119.318 41.3106 118.773 41.1136C118.227 40.9167 117.811 40.625 117.523 40.2386C117.242 39.8447 117.061 39.3864 116.977 38.8636H116.841C116.659 39.3182 116.303 39.7311 115.773 40.1023C115.242 40.4659 114.595 40.75 113.83 40.9545C113.072 41.1515 112.265 41.2235 111.409 41.1705C110.515 41.1174 109.667 40.9091 108.864 40.5455C108.068 40.1818 107.36 39.6553 106.739 38.9659C106.125 38.2765 105.64 37.4242 105.284 36.4091C104.936 35.3939 104.758 34.2197 104.75 32.8864C104.758 31.5682 104.943 30.4205 105.307 29.4432C105.678 28.4659 106.167 27.6439 106.773 26.9773C107.386 26.3106 108.068 25.7879 108.818 25.4091C109.568 25.0303 110.322 24.7879 111.08 24.6818C111.936 24.553 112.746 24.553 113.511 24.6818C114.277 24.8106 114.92 25.0189 115.443 25.3068C115.973 25.5947 116.303 25.9053 116.432 26.2386H116.591V24.9659H120.148V36.0568C120.155 36.5795 120.273 36.9848 120.5 37.2727C120.727 37.5606 121.034 37.7045 121.42 37.7045C121.943 37.7045 122.379 37.4735 122.727 37.0114C123.083 36.5492 123.348 35.8409 123.523 34.8864C123.705 33.9318 123.795 32.7159 123.795 31.2386C123.795 29.8144 123.606 28.5644 123.227 27.4886C122.856 26.4053 122.333 25.4848 121.659 24.7273C120.992 23.9621 120.216 23.3409 119.33 22.8636C118.443 22.3864 117.481 22.0379 116.443 21.8182C115.413 21.5985 114.352 21.4886 113.261 21.4886C111.375 21.4886 109.727 21.7765 108.318 22.3523C106.909 22.9205 105.735 23.7197 104.795 24.75C103.856 25.7803 103.152 26.9886 102.682 28.375C102.22 29.7538 101.985 31.2576 101.977 32.8864C101.985 34.6818 102.235 36.2727 102.727 37.6591C103.227 39.0379 103.962 40.197 104.932 41.1364C105.902 42.0758 107.098 42.7879 108.523 43.2727C109.947 43.7576 111.583 44 113.432 44C114.303 44 115.155 43.9356 115.989 43.8068C116.822 43.6856 117.576 43.5341 118.25 43.3523C118.924 43.178 119.466 43.0076 119.875 42.8409L121 46.1364C120.523 46.4091 119.875 46.6629 119.057 46.8977C118.246 47.1402 117.33 47.3333 116.307 47.4773C115.292 47.6288 114.246 47.7045 113.17 47.7045ZM112.648 37.4318C113.572 37.4318 114.307 37.2538 114.852 36.8977C115.405 36.5417 115.799 36.0152 116.034 35.3182C116.277 34.6136 116.39 33.7462 116.375 32.7159C116.367 31.8068 116.25 31.0379 116.023 30.4091C115.803 29.7727 115.42 29.2917 114.875 28.9659C114.337 28.6326 113.587 28.4659 112.625 28.4659C111.784 28.4659 111.068 28.6439 110.477 29C109.894 29.3561 109.447 29.8561 109.136 30.5C108.833 31.1364 108.678 31.8864 108.67 32.75C108.678 33.553 108.807 34.3144 109.057 35.0341C109.307 35.7462 109.72 36.3258 110.295 36.7727C110.871 37.2121 111.655 37.4318 112.648 37.4318ZM141.598 41V17.7273H146.439V26.4773H146.586C146.798 26.0076 147.105 25.5303 147.507 25.0455C147.916 24.553 148.446 24.1439 149.098 23.8182C149.757 23.4848 150.575 23.3182 151.552 23.3182C152.825 23.3182 153.999 23.6515 155.075 24.3182C156.151 24.9773 157.011 25.9735 157.655 27.3068C158.298 28.6326 158.62 30.2955 158.62 32.2955C158.62 34.2424 158.306 35.8864 157.677 37.2273C157.056 38.5606 156.208 39.572 155.132 40.2614C154.064 40.9432 152.867 41.2841 151.541 41.2841C150.602 41.2841 149.802 41.1288 149.143 40.8182C148.492 40.5076 147.958 40.1174 147.541 39.6477C147.124 39.1705 146.806 38.6894 146.586 38.2045H146.37V41H141.598ZM146.336 32.2727C146.336 33.3106 146.48 34.2159 146.768 34.9886C147.056 35.7614 147.473 36.3636 148.018 36.7955C148.564 37.2197 149.227 37.4318 150.007 37.4318C150.795 37.4318 151.461 37.2159 152.007 36.7841C152.552 36.3447 152.965 35.7386 153.245 34.9659C153.533 34.1856 153.677 33.2879 153.677 32.2727C153.677 31.2652 153.537 30.3788 153.257 29.6136C152.977 28.8485 152.564 28.25 152.018 27.8182C151.473 27.3864 150.802 27.1705 150.007 27.1705C149.219 27.1705 148.552 27.3788 148.007 27.7955C147.469 28.2121 147.056 28.803 146.768 29.5682C146.48 30.3333 146.336 31.2348 146.336 32.2727ZM171.337 41.3409C169.572 41.3409 168.045 40.9659 166.757 40.2159C165.477 39.4583 164.488 38.4053 163.791 37.0568C163.095 35.7008 162.746 34.1288 162.746 32.3409C162.746 30.5379 163.095 28.9621 163.791 27.6136C164.488 26.2576 165.477 25.2045 166.757 24.4545C168.045 23.697 169.572 23.3182 171.337 23.3182C173.102 23.3182 174.625 23.697 175.905 24.4545C177.193 25.2045 178.185 26.2576 178.882 27.6136C179.579 28.9621 179.928 30.5379 179.928 32.3409C179.928 34.1288 179.579 35.7008 178.882 37.0568C178.185 38.4053 177.193 39.4583 175.905 40.2159C174.625 40.9659 173.102 41.3409 171.337 41.3409ZM171.36 37.5909C172.163 37.5909 172.833 37.3636 173.371 36.9091C173.909 36.447 174.314 35.8182 174.587 35.0227C174.867 34.2273 175.007 33.322 175.007 32.3068C175.007 31.2917 174.867 30.3864 174.587 29.5909C174.314 28.7955 173.909 28.1667 173.371 27.7045C172.833 27.2424 172.163 27.0114 171.36 27.0114C170.549 27.0114 169.867 27.2424 169.314 27.7045C168.769 28.1667 168.356 28.7955 168.076 29.5909C167.803 30.3864 167.666 31.2917 167.666 32.3068C167.666 33.322 167.803 34.2273 168.076 35.0227C168.356 35.8182 168.769 36.447 169.314 36.9091C169.867 37.3636 170.549 37.5909 171.36 37.5909ZM189.516 30.9091V41H184.676V23.5455H189.289V26.625H189.494C189.88 25.6098 190.528 24.8068 191.437 24.2159C192.346 23.6174 193.448 23.3182 194.744 23.3182C195.956 23.3182 197.013 23.5833 197.914 24.1136C198.816 24.6439 199.516 25.4015 200.016 26.3864C200.516 27.3636 200.766 28.5303 200.766 29.8864V41H195.926V30.75C195.933 29.6818 195.66 28.8485 195.107 28.25C194.554 27.6439 193.793 27.3409 192.823 27.3409C192.172 27.3409 191.596 27.4811 191.096 27.7614C190.604 28.0417 190.217 28.4508 189.937 28.9886C189.664 29.5189 189.524 30.1591 189.516 30.9091ZM215.568 23.5455V27.1818H204.795V23.5455H215.568ZM207.261 41V22.2841C207.261 21.0189 207.508 19.9697 208 19.1364C208.5 18.303 209.182 17.678 210.045 17.2614C210.909 16.8447 211.89 16.6364 212.989 16.6364C213.731 16.6364 214.409 16.6932 215.023 16.8068C215.644 16.9205 216.106 17.0227 216.409 17.1136L215.545 20.75C215.356 20.6894 215.121 20.6326 214.841 20.5795C214.568 20.5265 214.288 20.5 214 20.5C213.288 20.5 212.792 20.6667 212.511 21C212.231 21.3258 212.091 21.7841 212.091 22.375V41H207.261ZM220.126 41V23.5455H224.966V41H220.126ZM222.557 21.2955C221.838 21.2955 221.22 21.0568 220.705 20.5795C220.198 20.0947 219.944 19.5152 219.944 18.8409C219.944 18.1742 220.198 17.6023 220.705 17.125C221.22 16.6402 221.838 16.3977 222.557 16.3977C223.277 16.3977 223.891 16.6402 224.398 17.125C224.913 17.6023 225.171 18.1742 225.171 18.8409C225.171 19.5152 224.913 20.0947 224.398 20.5795C223.891 21.0568 223.277 21.2955 222.557 21.2955ZM230.444 41V23.5455H235.137V26.5909H235.319C235.637 25.5076 236.172 24.6894 236.922 24.1364C237.672 23.5758 238.535 23.2955 239.512 23.2955C239.755 23.2955 240.016 23.3106 240.297 23.3409C240.577 23.3712 240.823 23.4129 241.035 23.4659V27.7614C240.808 27.6932 240.494 27.6326 240.092 27.5795C239.691 27.5265 239.323 27.5 238.99 27.5C238.278 27.5 237.641 27.6553 237.081 27.9659C236.528 28.2689 236.088 28.6932 235.762 29.2386C235.444 29.7841 235.285 30.4129 235.285 31.125V41H230.444ZM252.28 41.3409C250.485 41.3409 248.939 40.9773 247.644 40.25C246.356 39.5152 245.363 38.4773 244.666 37.1364C243.97 35.7879 243.621 34.1932 243.621 32.3523C243.621 30.5568 243.97 28.9811 244.666 27.625C245.363 26.2689 246.345 25.2121 247.61 24.4545C248.882 23.697 250.375 23.3182 252.087 23.3182C253.238 23.3182 254.31 23.5038 255.303 23.875C256.303 24.2386 257.174 24.7879 257.916 25.5227C258.666 26.2576 259.25 27.1818 259.666 28.2955C260.083 29.4015 260.291 30.697 260.291 32.1818V33.5114H245.553V30.5114H255.735C255.735 29.8144 255.583 29.197 255.28 28.6591C254.977 28.1212 254.557 27.7008 254.019 27.3977C253.488 27.0871 252.871 26.9318 252.166 26.9318C251.432 26.9318 250.78 27.1023 250.212 27.4432C249.651 27.7765 249.212 28.2273 248.894 28.7955C248.576 29.3561 248.413 29.9811 248.405 30.6705V33.5227C248.405 34.3864 248.564 35.1326 248.882 35.7614C249.208 36.3902 249.666 36.875 250.257 37.2159C250.848 37.5568 251.549 37.7273 252.36 37.7273C252.898 37.7273 253.39 37.6515 253.837 37.5C254.284 37.3485 254.666 37.1212 254.985 36.8182C255.303 36.5152 255.545 36.1439 255.712 35.7045L260.189 36C259.962 37.0758 259.496 38.0152 258.791 38.8182C258.095 39.6136 257.193 40.2348 256.087 40.6818C254.988 41.1212 253.72 41.3409 252.28 41.3409ZM267.88 41.2955C267.13 41.2955 266.486 41.0303 265.948 40.5C265.418 39.9621 265.153 39.3182 265.153 38.5682C265.153 37.8258 265.418 37.1894 265.948 36.6591C266.486 36.1288 267.13 35.8636 267.88 35.8636C268.607 35.8636 269.244 36.1288 269.789 36.6591C270.335 37.1894 270.607 37.8258 270.607 38.5682C270.607 39.0682 270.479 39.5265 270.221 39.9432C269.971 40.3523 269.641 40.6818 269.232 40.9318C268.823 41.1742 268.373 41.2955 267.88 41.2955ZM285.466 23.5455V27.1818H274.955V23.5455H285.466ZM277.341 19.3636H282.182V35.6364C282.182 36.0833 282.25 36.4318 282.386 36.6818C282.523 36.9242 282.712 37.0947 282.955 37.1932C283.205 37.2917 283.492 37.3409 283.818 37.3409C284.045 37.3409 284.273 37.322 284.5 37.2841C284.727 37.2386 284.902 37.2045 285.023 37.1818L285.784 40.7841C285.542 40.8598 285.201 40.947 284.761 41.0455C284.322 41.1515 283.788 41.2159 283.159 41.2386C281.992 41.2841 280.97 41.1288 280.091 40.7727C279.22 40.4167 278.542 39.8636 278.057 39.1136C277.572 38.3636 277.333 37.4167 277.341 36.2727V19.3636ZM297.986 41.3409C296.191 41.3409 294.645 40.9773 293.35 40.25C292.062 39.5152 291.07 38.4773 290.373 37.1364C289.676 35.7879 289.327 34.1932 289.327 32.3523C289.327 30.5568 289.676 28.9811 290.373 27.625C291.07 26.2689 292.051 25.2121 293.316 24.4545C294.589 23.697 296.081 23.3182 297.793 23.3182C298.945 23.3182 300.017 23.5038 301.009 23.875C302.009 24.2386 302.88 24.7879 303.623 25.5227C304.373 26.2576 304.956 27.1818 305.373 28.2955C305.789 29.4015 305.998 30.697 305.998 32.1818V33.5114H291.259V30.5114H301.441C301.441 29.8144 301.289 29.197 300.986 28.6591C300.683 28.1212 300.263 27.7008 299.725 27.3977C299.195 27.0871 298.577 26.9318 297.873 26.9318C297.138 26.9318 296.486 27.1023 295.918 27.4432C295.358 27.7765 294.918 28.2273 294.6 28.7955C294.282 29.3561 294.119 29.9811 294.111 30.6705V33.5227C294.111 34.3864 294.27 35.1326 294.589 35.7614C294.914 36.3902 295.373 36.875 295.964 37.2159C296.555 37.5568 297.255 37.7273 298.066 37.7273C298.604 37.7273 299.096 37.6515 299.543 37.5C299.99 37.3485 300.373 37.1212 300.691 36.8182C301.009 36.5152 301.252 36.1439 301.418 35.7045L305.895 36C305.668 37.0758 305.202 38.0152 304.498 38.8182C303.801 39.6136 302.899 40.2348 301.793 40.6818C300.695 41.1212 299.426 41.3409 297.986 41.3409ZM318.643 41.3409C316.855 41.3409 315.317 40.9621 314.03 40.2045C312.749 39.4394 311.764 38.3788 311.075 37.0227C310.393 35.6667 310.052 34.1061 310.052 32.3409C310.052 30.553 310.397 28.9848 311.086 27.6364C311.783 26.2803 312.772 25.2235 314.052 24.4659C315.333 23.7008 316.855 23.3182 318.62 23.3182C320.143 23.3182 321.477 23.5947 322.62 24.1477C323.764 24.7008 324.67 25.4773 325.336 26.4773C326.003 27.4773 326.37 28.6515 326.439 30H321.87C321.742 29.1288 321.401 28.428 320.848 27.8977C320.302 27.3598 319.586 27.0909 318.7 27.0909C317.95 27.0909 317.295 27.2955 316.734 27.7045C316.181 28.1061 315.749 28.6932 315.439 29.4659C315.128 30.2386 314.973 31.1742 314.973 32.2727C314.973 33.3864 315.124 34.3333 315.427 35.1136C315.738 35.8939 316.173 36.4886 316.734 36.8977C317.295 37.3068 317.95 37.5114 318.7 37.5114C319.253 37.5114 319.749 37.3977 320.189 37.1705C320.636 36.9432 321.003 36.6136 321.291 36.1818C321.586 35.7424 321.78 35.2159 321.87 34.6023H326.439C326.363 35.9356 325.999 37.1098 325.348 38.125C324.704 39.1326 323.814 39.9205 322.677 40.4886C321.541 41.0568 320.196 41.3409 318.643 41.3409ZM335.979 30.9091V41H331.138V17.7273H335.843V26.625H336.047C336.441 25.5947 337.077 24.7879 337.956 24.2045C338.835 23.6136 339.937 23.3182 341.263 23.3182C342.475 23.3182 343.532 23.5833 344.434 24.1136C345.343 24.6364 346.047 25.3902 346.547 26.375C347.055 27.3523 347.305 28.5227 347.297 29.8864V41H342.456V30.75C342.464 29.6742 342.191 28.8371 341.638 28.2386C341.093 27.6402 340.327 27.3409 339.343 27.3409C338.684 27.3409 338.1 27.4811 337.593 27.7614C337.093 28.0417 336.699 28.4508 336.411 28.9886C336.13 29.5189 335.987 30.1591 335.979 30.9091Z" fill="white"/>
</svg>
